{
  "accessors": [
    {
      "bufferView": 0,
      "componentType": 5126,
      "count": 1280,
      "max": [
        0.023489883169531822,
        0.023489883169531822,
        0.24285899102687836
      ],
      "min": [
        -0.02349019981920719,
        -0.02349019981920719,
        -1.1864200359923416e-06
      ],
      "type": "VEC3"
    },
    {
      "bufferView": 1,
      "componentType": 5125,
      "count": 1536,
      "type": "SCALAR"
    },
    {
      "bufferView": 2,
      "componentType": 5126,
      "count": 1280,
      "type": "VEC3"
    },
    {
      "bufferView": 3,
      "componentType": 5126,
      "count": 1280,
      "max": [
        0.023489883169531822,
        0.023489883169531822,
        0.24285899102687836
      ],
      "min": [
        -0.02349019981920719,
        -0.02349019981920719,
        -1.1864200359923416e-06
      ],
      "type": "VEC3"
    },
    {
      "bufferView": 4,
      "componentType": 5125,
      "count": 36,
      "type": "SCALAR"
    },
    {
      "bufferView": 5,
      "componentType": 5126,
      "count": 1280,
      "type": "VEC3"
    },
    {
      "bufferView": 6,
      "componentType": 5126,
      "count": 24,
      "max": [
        0.0009225949761457741,
        0.0018898937851190567,
        0.24028107523918152
      ],
      "min": [
        -0.09301739931106567,
        0.0004798889858648181,
        0.0007311379886232316
      ],
      "type": "VEC3"
    },
    {
      "bufferView": 7,
      "componentType": 5125,
      "count": 34,
      "type": "SCALAR"
    },
    {
      "bufferView": 8,
      "componentType": 5126,
      "count": 24,
      "type": "VEC3"
    },
    {
      "bufferView": 9,
      "componentType": 5126,
      "count": 524,
      "max": [
        -0.036870211362838745,
        0.0010099944192916155,
        0.21102909743785858
      ],
      "min": [
        -0.07355020195245743,
        2.99952007480897e-05,
        0.018559100106358528
      ],
      "type": "VEC3"
    },
    {
      "bufferView": 10,
      "componentType": 5125,
      "count": 849,
      "type": "SCALAR"
    },
    {
      "bufferView": 11,
      "componentType": 5126,
      "count": 524,
      "type": "VEC3"
    },
    {
      "bufferView": 12,
      "componentType": 5126,
      "count": 524,
      "max": [
        -0.036870211362838745,
        0.0010099944192916155,
        0.21102909743785858
      ],
      "min": [
        -0.07355020195245743,
        2.99952007480897e-05,
        0.018559100106358528
      ],
      "type": "VEC3"
    },
    {
      "bufferView": 13,
      "componentType": 5125,
      "count": 111,
      "type": "SCALAR"
    },
    {
      "bufferView": 14,
      "componentType": 5126,
      "count": 524,
      "type": "VEC3"
    },
    {
      "bufferView": 15,
      "componentType": 5126,
      "count": 24,
      "max": [
        0.0935525968670845,
        0.0014098937390372157,
        0.23746107518672943
      ],
      "min": [
        -0.0003873970126733184,
        -1.1102400065965412e-07,
        -0.002088859910145402
      ],
      "type": "VEC3"
    },
    {
      "bufferView": 16,
      "componentType": 5125,
      "count": 34,
      "type": "SCALAR"
    },
    {
      "bufferView": 17,
      "componentType": 5126,
      "count": 24,
      "type": "VEC3"
    },
    {
      "bufferView": 18,
      "componentType": 5126,
      "count": 524,
      "max": [
        0.07410981506109238,
        0.0005299941985867918,
        0.20821909606456757
      ],
      "min": [
        0.03741979971528053,
        -0.0004500049981288612,
        0.015749100595712662
      ],
      "type": "VEC3"
    },
    {
      "bufferView": 19,
      "componentType": 5125,
      "count": 849,
      "type": "SCALAR"
    },
    {
      "bufferView": 20,
      "componentType": 5126,
      "count": 524,
      "type": "VEC3"
    },
    {
      "bufferView": 21,
      "componentType": 5126,
      "count": 524,
      "max": [
        0.07410981506109238,
        0.0005299941985867918,
        0.20821909606456757
      ],
      "min": [
        0.03741979971528053,
        -0.0004500049981288612,
        0.015749100595712662
      ],
      "type": "VEC3"
    },
    {
      "bufferView": 22,
      "componentType": 5125,
      "count": 111,
      "type": "SCALAR"
    },
    {
      "bufferView": 23,
      "componentType": 5126,
      "count": 524,
      "type": "VEC3"
    },
    {
      "bufferView": 24,
      "componentType": 5126,
      "count": 1280,
      "max": [
        0.023489883169531822,
        0.023489883169531822,
        0.24285899102687836
      ],
      "min": [
        -0.02349019981920719,
        -0.02349019981920719,
        -1.1864200359923416e-06
      ],
      "type": "VEC3"
    },
    {
      "bufferView": 25,
      "componentType": 5125,
      "count": 1536,
      "type": "SCALAR"
    },
    {
      "bufferView": 26,
      "componentType": 5126,
      "count": 1280,
      "type": "VEC3"
    },
    {
      "bufferView": 27,
      "componentType": 5126,
      "count": 1280,
      "max": [
        0.023489883169531822,
        0.023489883169531822,
        0.24285899102687836
      ],
      "min": [
        -0.02349019981920719,
        -0.02349019981920719,
        -1.1864200359923416e-06
      ],
      "type": "VEC3"
    },
    {
      "bufferView": 28,
      "componentType": 5125,
      "count": 36,
      "type": "SCALAR"
    },
    {
      "bufferView": 29,
      "componentType": 5126,
      "count": 1280,
      "type": "VEC3"
    },
    {
      "bufferView": 30,
      "componentType": 5126,
      "count": 24,
      "max": [
        0.0935525968670845,
        0.0014098937390372157,
        0.23746107518672943
      ],
      "min": [
        -0.0003873970126733184,
        -1.1102400065965412e-07,
        -0.002088859910145402
      ],
      "type": "VEC3"
    },
    {
      "bufferView": 31,
      "componentType": 5125,
      "count": 34,
      "type": "SCALAR"
    },
    {
      "bufferView": 32,
      "componentType": 5126,
      "count": 24,
      "type": "VEC3"
    },
    {
      "bufferView": 33,
      "componentType": 5126,
      "count": 524,
      "max": [
        0.07410981506109238,
        0.0005299941985867918,
        0.20821909606456757
      ],
      "min": [
        0.03741979971528053,
        -0.0004500049981288612,
        0.015749100595712662
      ],
      "type": "VEC3"
    },
    {
      "bufferView": 34,
      "componentType": 5125,
      "count": 849,
      "type": "SCALAR"
    },
    {
      "bufferView": 35,
      "componentType": 5126,
      "count": 524,
      "type": "VEC3"
    },
    {
      "bufferView": 36,
      "componentType": 5126,
      "count": 524,
      "max": [
        0.07410981506109238,
        0.0005299941985867918,
        0.20821909606456757
      ],
      "min": [
        0.03741979971528053,
        -0.0004500049981288612,
        0.015749100595712662
      ],
      "type": "VEC3"
    },
    {
      "bufferView": 37,
      "componentType": 5125,
      "count": 111,
      "type": "SCALAR"
    },
    {
      "bufferView": 38,
      "componentType": 5126,
      "count": 524,
      "type": "VEC3"
    },
    {
      "bufferView": 39,
      "componentType": 5126,
      "count": 24,
      "max": [
        0.0009225949761457741,
        0.0018898937851190567,
        0.24028107523918152
      ],
      "min": [
        -0.09301739931106567,
        0.0004798889858648181,
        0.0007311379886232316
      ],
      "type": "VEC3"
    },
    {
      "bufferView": 40,
      "componentType": 5125,
      "count": 34,
      "type": "SCALAR"
    },
    {
      "bufferView": 41,
      "componentType": 5126,
      "count": 24,
      "type": "VEC3"
    },
    {
      "bufferView": 42,
      "componentType": 5126,
      "count": 524,
      "max": [
        -0.036870211362838745,
        0.0010099944192916155,
        0.21102909743785858
      ],
      "min": [
        -0.07355020195245743,
        2.99952007480897e-05,
        0.018559100106358528
      ],
      "type": "VEC3"
    },
    {
      "bufferView": 43,
      "componentType": 5125,
      "count": 849,
      "type": "SCALAR"
    },
    {
      "bufferView": 44,
      "componentType": 5126,
      "count": 524,
      "type": "VEC3"
    },
    {
      "bufferView": 45,
      "componentType": 5126,
      "count": 524,
      "max": [
        -0.036870211362838745,
        0.0010099944192916155,
        0.21102909743785858
      ],
      "min": [
        -0.07355020195245743,
        2.99952007480897e-05,
        0.018559100106358528
      ],
      "type": "VEC3"
    },
    {
      "bufferView": 46,
      "componentType": 5125,
      "count": 111,
      "type": "SCALAR"
    },
    {
      "bufferView": 47,
      "componentType": 5126,
      "count": 524,
      "type": "VEC3"
    },
    {
      "bufferView": 48,
      "componentType": 5126,
      "count": 1280,
      "max": [
        0.023489883169531822,
        0.023489883169531822,
        0.24285899102687836
      ],
      "min": [
        -0.02349019981920719,
        -0.02349019981920719,
        -1.1864200359923416e-06
      ],
      "type": "VEC3"
    },
    {
      "bufferView": 49,
      "componentType": 5125,
      "count": 1536,
      "type": "SCALAR"
    },
    {
      "bufferView": 50,
      "componentType": 5126,
      "count": 1280,
      "type": "VEC3"
    },
    {
      "bufferView": 51,
      "componentType": 5126,
      "count": 1280,
      "max": [
        0.023489883169531822,
        0.023489883169531822,
        0.24285899102687836
      ],
      "min": [
        -0.02349019981920719,
        -0.02349019981920719,
        -1.1864200359923416e-06
      ],
      "type": "VEC3"
    },
    {
      "bufferView": 52,
      "componentType": 5125,
      "count": 36,
      "type": "SCALAR"
    },
    {
      "bufferView": 53,
      "componentType": 5126,
      "count": 1280,
      "type": "VEC3"
    },
    {
      "bufferView": 54,
      "componentType": 5126,
      "count": 24,
      "max": [
        0.0009225949761457741,
        0.0018898937851190567,
        0.24028107523918152
      ],
      "min": [
        -0.09301739931106567,
        0.0004798889858648181,
        0.0007311379886232316
      ],
      "type": "VEC3"
    },
    {
      "bufferView": 55,
      "componentType": 5125,
      "count": 34,
      "type": "SCALAR"
    },
    {
      "bufferView": 56,
      "componentType": 5126,
      "count": 24,
      "type": "VEC3"
    },
    {
      "bufferView": 57,
      "componentType": 5126,
      "count": 524,
      "max": [
        -0.036870211362838745,
        0.0010099944192916155,
        0.21102909743785858
      ],
      "min": [
        -0.07355020195245743,
        2.99952007480897e-05,
        0.018559100106358528
      ],
      "type": "VEC3"
    },
    {
      "bufferView": 58,
      "componentType": 5125,
      "count": 849,
      "type": "SCALAR"
    },
    {
      "bufferView": 59,
      "componentType": 5126,
      "count": 524,
      "type": "VEC3"
    },
    {
      "bufferView": 60,
      "componentType": 5126,
      "count": 524,
      "max": [
        -0.036870211362838745,
        0.0010099944192916155,
        0.21102909743785858
      ],
      "min": [
        -0.07355020195245743,
        2.99952007480897e-05,
        0.018559100106358528
      ],
      "type": "VEC3"
    },
    {
      "bufferView": 61,
      "componentType": 5125,
      "count": 111,
      "type": "SCALAR"
    },
    {
      "bufferView": 62,
      "componentType": 5126,
      "count": 524,
      "type": "VEC3"
    },
    {
      "bufferView": 63,
      "componentType": 5126,
      "count": 24,
      "max": [
        0.0935525968670845,
        0.0014098937390372157,
        0.23746107518672943
      ],
      "min": [
        -0.0003873970126733184,
        -1.1102400065965412e-07,
        -0.002088859910145402
      ],
      "type": "VEC3"
    },
    {
      "bufferView": 64,
      "componentType": 5125,
      "count": 34,
      "type": "SCALAR"
    },
    {
      "bufferView": 65,
      "componentType": 5126,
      "count": 24,
      "type": "VEC3"
    },
    {
      "bufferView": 66,
      "componentType": 5126,
      "count": 524,
      "max": [
        0.07410981506109238,
        0.0005299941985867918,
        0.20821909606456757
      ],
      "min": [
        0.03741979971528053,
        -0.0004500049981288612,
        0.015749100595712662
      ],
      "type": "VEC3"
    },
    {
      "bufferView": 67,
      "componentType": 5125,
      "count": 849,
      "type": "SCALAR"
    },
    {
      "bufferView": 68,
      "componentType": 5126,
      "count": 524,
      "type": "VEC3"
    },
    {
      "bufferView": 69,
      "componentType": 5126,
      "count": 524,
      "max": [
        0.07410981506109238,
        0.0005299941985867918,
        0.20821909606456757
      ],
      "min": [
        0.03741979971528053,
        -0.0004500049981288612,
        0.015749100595712662
      ],
      "type": "VEC3"
    },
    {
      "bufferView": 70,
      "componentType": 5125,
      "count": 111,
      "type": "SCALAR"
    },
    {
      "bufferView": 71,
      "componentType": 5126,
      "count": 524,
      "type": "VEC3"
    },
    {
      "bufferView": 72,
      "componentType": 5126,
      "count": 4,
      "max": [
        7.9999680519104,
        7.9999680519104,
        0.0
      ],
      "min": [
        -8.0,
        -8.0,
        0.0
      ],
      "type": "VEC3"
    },
    {
      "bufferView": 73,
      "componentType": 5125,
      "count": 4,
      "type": "SCALAR"
    },
    {
      "bufferView": 74,
      "componentType": 5126,
      "count": 4,
      "type": "VEC3"
    },
    {
      "bufferView": 75,
      "componentType": 5126,
      "count": 48,
      "max": [
        2.729996681213379,
        0.39331990480422974,
        4.988678932189941
      ],
      "min": [
        -2.7300000190734863,
        -0.2866800129413605,
        -6.9913201332092285
      ],
      "type": "VEC3"
    },
    {
      "bufferView": 76,
      "componentType": 5125,
      "count": 74,
      "type": "SCALAR"
    },
    {
      "bufferView": 77,
      "componentType": 5126,
      "count": 48,
      "type": "VEC3"
    },
    {
      "bufferView": 78,
      "componentType": 5126,
      "count": 48,
      "type": "VEC2"
    },
    {
      "bufferView": 79,
      "componentType": 5126,
      "count": 164,
      "max": [
        -7.016999734332785e-05,
        0.061867259442806244,
        -9.898999996948987e-05
      ],
      "min": [
        -4.800059795379639,
        -0.3676219880580902,
        -11.600099563598633
      ],
      "type": "VEC3"
    },
    {
      "bufferView": 80,
      "componentType": 5125,
      "count": 212,
      "type": "SCALAR"
    },
    {
      "bufferView": 81,
      "componentType": 5126,
      "count": 164,
      "type": "VEC3"
    },
    {
      "bufferView": 82,
      "componentType": 5126,
      "count": 164,
      "type": "VEC4"
    },
    {
      "bufferView": 83,
      "componentType": 5126,
      "count": 164,
      "type": "VEC2"
    },
    {
      "bufferView": 84,
      "componentType": 5126,
      "count": 164,
      "max": [
        -7.016999734332785e-05,
        0.061867259442806244,
        -9.898999996948987e-05
      ],
      "min": [
        -4.800059795379639,
        -0.3676219880580902,
        -11.600099563598633
      ],
      "type": "VEC3"
    },
    {
      "bufferView": 85,
      "componentType": 5125,
      "count": 21,
      "type": "SCALAR"
    },
    {
      "bufferView": 86,
      "componentType": 5126,
      "count": 164,
      "type": "VEC3"
    },
    {
      "bufferView": 87,
      "componentType": 5126,
      "count": 164,
      "type": "VEC4"
    },
    {
      "bufferView": 88,
      "componentType": 5126,
      "count": 164,
      "type": "VEC2"
    },
    {
      "bufferView": 89,
      "componentType": 5126,
      "count": 28,
      "max": [
        -1.859570860862732,
        -0.006112399976700544,
        -1.3204227685928345
      ],
      "min": [
        -2.9405651092529297,
        -0.2996421754360199,
        -6.771913051605225
      ],
      "type": "VEC3"
    },
    {
      "bufferView": 90,
      "componentType": 5125,
      "count": 40,
      "type": "SCALAR"
    },
    {
      "bufferView": 91,
      "componentType": 5126,
      "count": 28,
      "type": "VEC3"
    },
    {
      "bufferView": 92,
      "componentType": 5126,
      "count": 28,
      "type": "VEC4"
    },
    {
      "bufferView": 93,
      "componentType": 5126,
      "count": 28,
      "type": "VEC2"
    },
    {
      "bufferView": 94,
      "componentType": 5126,
      "count": 672,
      "max": [
        0.20000018179416656,
        0.051050085574388504,
        0.20000018179416656
      ],
      "min": [
        -0.20000000298023224,
        -0.09666000306606293,
        -0.20000000298023224
      ],
      "type": "VEC3"
    },
    {
      "bufferView": 95,
      "componentType": 5125,
      "count": 798,
      "type": "SCALAR"
    },
    {
      "bufferView": 96,
      "componentType": 5126,
      "count": 672,
      "type": "VEC3"
    },
    {
      "bufferView": 97,
      "componentType": 5126,
      "count": 672,
      "max": [
        0.20000018179416656,
        0.051050085574388504,
        0.20000018179416656
      ],
      "min": [
        -0.20000000298023224,
        -0.09666000306606293,
        -0.20000000298023224
      ],
      "type": "VEC3"
    },
    {
      "bufferView": 98,
      "componentType": 5125,
      "count": 21,
      "type": "SCALAR"
    },
    {
      "bufferView": 99,
      "componentType": 5126,
      "count": 672,
      "type": "VEC3"
    },
    {
      "bufferView": 100,
      "componentType": 5126,
      "count": 584,
      "max": [
        0.06655949354171753,
        0.06655949354171753,
        0.04385943338274956
      ],
      "min": [
        -0.06656060367822647,
        -0.06656060367822647,
        -0.05563050135970116
      ],
      "type": "VEC3"
    },
    {
      "bufferView": 101,
      "componentType": 5125,
      "count": 814,
      "type": "SCALAR"
    },
    {
      "bufferView": 102,
      "componentType": 5126,
      "count": 584,
      "type": "VEC3"
    },
    {
      "bufferView": 103,
      "componentType": 5126,
      "count": 584,
      "max": [
        0.06655949354171753,
        0.06655949354171753,
        0.04385943338274956
      ],
      "min": [
        -0.06656060367822647,
        -0.06656060367822647,
        -0.05563050135970116
      ],
      "type": "VEC3"
    },
    {
      "bufferView": 104,
      "componentType": 5125,
      "count": 45,
      "type": "SCALAR"
    },
    {
      "bufferView": 105,
      "componentType": 5126,
      "count": 584,
      "type": "VEC3"
    },
    {
      "bufferView": 106,
      "componentType": 5126,
      "count": 34,
      "max": [
        0.03327486664056778,
        0.033272746950387955,
        0.043263159692287445
      ],
      "min": [
        -0.03328520059585571,
        -0.060067299753427505,
        -0.04327680170536041
      ],
      "type": "VEC3"
    },
    {
      "bufferView": 107,
      "componentType": 5125,
      "count": 58,
      "type": "SCALAR"
    },
    {
      "bufferView": 108,
      "componentType": 5126,
      "count": 34,
      "type": "VEC3"
    },
    {
      "bufferView": 109,
      "componentType": 5126,
      "count": 408,
      "max": [
        0.9999996423721313,
        0.4999987781047821,
        0.1999998688697815
      ],
      "min": [
        -0.20000000298023224,
        -0.07167070358991623,
        -0.20000000298023224
      ],
      "type": "VEC3"
    },
    {
      "bufferView": 110,
      "componentType": 5125,
      "count": 742,
      "type": "SCALAR"
    },
    {
      "bufferView": 111,
      "componentType": 5126,
      "count": 408,
      "type": "VEC3"
    },
    {
      "bufferView": 112,
      "componentType": 5126,
      "count": 408,
      "max": [
        0.9999996423721313,
        0.07166946679353714,
        0.1999998688697815
      ],
      "min": [
        -0.20000000298023224,
        -0.5,
        -0.20000000298023224
      ],
      "type": "VEC3"
    },
    {
      "bufferView": 113,
      "componentType": 5125,
      "count": 742,
      "type": "SCALAR"
    },
    {
      "bufferView": 114,
      "componentType": 5126,
      "count": 408,
      "type": "VEC3"
    },
    {
      "bufferView": 115,
      "componentType": 5126,
      "count": 672,
      "max": [
        0.20000018179416656,
        0.0966600850224495,
        0.20000018179416656
      ],
      "min": [
        -0.20000000298023224,
        -0.05104999989271164,
        -0.20000000298023224
      ],
      "type": "VEC3"
    },
    {
      "bufferView": 116,
      "componentType": 5125,
      "count": 798,
      "type": "SCALAR"
    },
    {
      "bufferView": 117,
      "componentType": 5126,
      "count": 672,
      "type": "VEC3"
    },
    {
      "bufferView": 118,
      "componentType": 5126,
      "count": 672,
      "max": [
        0.20000018179416656,
        0.0966600850224495,
        0.20000018179416656
      ],
      "min": [
        -0.20000000298023224,
        -0.05104999989271164,
        -0.20000000298023224
      ],
      "type": "VEC3"
    },
    {
      "bufferView": 119,
      "componentType": 5125,
      "count": 21,
      "type": "SCALAR"
    },
    {
      "bufferView": 120,
      "componentType": 5126,
      "count": 672,
      "type": "VEC3"
    },
    {
      "bufferView": 121,
      "componentType": 5126,
      "count": 584,
      "max": [
        0.06655949354171753,
        0.06655949354171753,
        0.05562133342027664
      ],
      "min": [
        -0.06656060367822647,
        -0.06656060367822647,
        -0.04386860132217407
      ],
      "type": "VEC3"
    },
    {
      "bufferView": 122,
      "componentType": 5125,
      "count": 814,
      "type": "SCALAR"
    },
    {
      "bufferView": 123,
      "componentType": 5126,
      "count": 584,
      "type": "VEC3"
    },
    {
      "bufferView": 124,
      "componentType": 5126,
      "count": 584,
      "max": [
        0.06655949354171753,
        0.06655949354171753,
        0.05562133342027664
      ],
      "min": [
        -0.06656060367822647,
        -0.06656060367822647,
        -0.04386860132217407
      ],
      "type": "VEC3"
    },
    {
      "bufferView": 125,
      "componentType": 5125,
      "count": 45,
      "type": "SCALAR"
    },
    {
      "bufferView": 126,
      "componentType": 5126,
      "count": 584,
      "type": "VEC3"
    },
    {
      "bufferView": 127,
      "componentType": 5126,
      "count": 34,
      "max": [
        0.03327486664056778,
        0.05973124876618385,
        0.043263159692287445
      ],
      "min": [
        -0.03328520059585571,
        -0.033608801662921906,
        -0.04327680170536041
      ],
      "type": "VEC3"
    },
    {
      "bufferView": 128,
      "componentType": 5125,
      "count": 58,
      "type": "SCALAR"
    },
    {
      "bufferView": 129,
      "componentType": 5126,
      "count": 34,
      "type": "VEC3"
    }
  ],
  "asset": {
    "version": "2.0"
  },
  "bufferViews": [
    {
      "buffer": 0,
      "byteLength": 15360,
      "target": 34962
    },
    {
      "buffer": 1,
      "byteLength": 6144,
      "target": 34963
    },
    {
      "buffer": 2,
      "byteLength": 15360,
      "target": 34962
    },
    {
      "buffer": 0,
      "byteLength": 15360,
      "target": 34962
    },
    {
      "buffer": 3,
      "byteLength": 144,
      "target": 34963
    },
    {
      "buffer": 2,
      "byteLength": 15360,
      "target": 34962
    },
    {
      "buffer": 4,
      "byteLength": 288,
      "target": 34962
    },
    {
      "buffer": 5,
      "byteLength": 136,
      "target": 34963
    },
    {
      "buffer": 6,
      "byteLength": 288,
      "target": 34962
    },
    {
      "buffer": 7,
      "byteLength": 6288,
      "target": 34962
    },
    {
      "buffer": 8,
      "byteLength": 3396,
      "target": 34963
    },
    {
      "buffer": 9,
      "byteLength": 6288,
      "target": 34962
    },
    {
      "buffer": 7,
      "byteLength": 6288,
      "target": 34962
    },
    {
      "buffer": 10,
      "byteLength": 444,
      "target": 34963
    },
    {
      "buffer": 9,
      "byteLength": 6288,
      "target": 34962
    },
    {
      "buffer": 11,
      "byteLength": 288,
      "target": 34962
    },
    {
      "buffer": 12,
      "byteLength": 136,
      "target": 34963
    },
    {
      "buffer": 13,
      "byteLength": 288,
      "target": 34962
    },
    {
      "buffer": 14,
      "byteLength": 6288,
      "target": 34962
    },
    {
      "buffer": 15,
      "byteLength": 3396,
      "target": 34963
    },
    {
      "buffer": 16,
      "byteLength": 6288,
      "target": 34962
    },
    {
      "buffer": 14,
      "byteLength": 6288,
      "target": 34962
    },
    {
      "buffer": 17,
      "byteLength": 444,
      "target": 34963
    },
    {
      "buffer": 16,
      "byteLength": 6288,
      "target": 34962
    },
    {
      "buffer": 18,
      "byteLength": 15360,
      "target": 34962
    },
    {
      "buffer": 19,
      "byteLength": 6144,
      "target": 34963
    },
    {
      "buffer": 20,
      "byteLength": 15360,
      "target": 34962
    },
    {
      "buffer": 18,
      "byteLength": 15360,
      "target": 34962
    },
    {
      "buffer": 21,
      "byteLength": 144,
      "target": 34963
    },
    {
      "buffer": 20,
      "byteLength": 15360,
      "target": 34962
    },
    {
      "buffer": 22,
      "byteLength": 288,
      "target": 34962
    },
    {
      "buffer": 23,
      "byteLength": 136,
      "target": 34963
    },
    {
      "buffer": 24,
      "byteLength": 288,
      "target": 34962
    },
    {
      "buffer": 25,
      "byteLength": 6288,
      "target": 34962
    },
    {
      "buffer": 26,
      "byteLength": 3396,
      "target": 34963
    },
    {
      "buffer": 27,
      "byteLength": 6288,
      "target": 34962
    },
    {
      "buffer": 25,
      "byteLength": 6288,
      "target": 34962
    },
    {
      "buffer": 28,
      "byteLength": 444,
      "target": 34963
    },
    {
      "buffer": 27,
      "byteLength": 6288,
      "target": 34962
    },
    {
      "buffer": 29,
      "byteLength": 288,
      "target": 34962
    },
    {
      "buffer": 30,
      "byteLength": 136,
      "target": 34963
    },
    {
      "buffer": 31,
      "byteLength": 288,
      "target": 34962
    },
    {
      "buffer": 32,
      "byteLength": 6288,
      "target": 34962
    },
    {
      "buffer": 33,
      "byteLength": 3396,
      "target": 34963
    },
    {
      "buffer": 34,
      "byteLength": 6288,
      "target": 34962
    },
    {
      "buffer": 32,
      "byteLength": 6288,
      "target": 34962
    },
    {
      "buffer": 35,
      "byteLength": 444,
      "target": 34963
    },
    {
      "buffer": 34,
      "byteLength": 6288,
      "target": 34962
    },
    {
      "buffer": 36,
      "byteLength": 15360,
      "target": 34962
    },
    {
      "buffer": 37,
      "byteLength": 6144,
      "target": 34963
    },
    {
      "buffer": 38,
      "byteLength": 15360,
      "target": 34962
    },
    {
      "buffer": 36,
      "byteLength": 15360,
      "target": 34962
    },
    {
      "buffer": 39,
      "byteLength": 144,
      "target": 34963
    },
    {
      "buffer": 38,
      "byteLength": 15360,
      "target": 34962
    },
    {
      "buffer": 40,
      "byteLength": 288,
      "target": 34962
    },
    {
      "buffer": 41,
      "byteLength": 136,
      "target": 34963
    },
    {
      "buffer": 42,
      "byteLength": 288,
      "target": 34962
    },
    {
      "buffer": 43,
      "byteLength": 6288,
      "target": 34962
    },
    {
      "buffer": 44,
      "byteLength": 3396,
      "target": 34963
    },
    {
      "buffer": 45,
      "byteLength": 6288,
      "target": 34962
    },
    {
      "buffer": 43,
      "byteLength": 6288,
      "target": 34962
    },
    {
      "buffer": 46,
      "byteLength": 444,
      "target": 34963
    },
    {
      "buffer": 45,
      "byteLength": 6288,
      "target": 34962
    },
    {
      "buffer": 47,
      "byteLength": 288,
      "target": 34962
    },
    {
      "buffer": 48,
      "byteLength": 136,
      "target": 34963
    },
    {
      "buffer": 49,
      "byteLength": 288,
      "target": 34962
    },
    {
      "buffer": 50,
      "byteLength": 6288,
      "target": 34962
    },
    {
      "buffer": 51,
      "byteLength": 3396,
      "target": 34963
    },
    {
      "buffer": 52,
      "byteLength": 6288,
      "target": 34962
    },
    {
      "buffer": 50,
      "byteLength": 6288,
      "target": 34962
    },
    {
      "buffer": 53,
      "byteLength": 444,
      "target": 34963
    },
    {
      "buffer": 52,
      "byteLength": 6288,
      "target": 34962
    },
    {
      "buffer": 54,
      "byteLength": 48,
      "target": 34962
    },
    {
      "buffer": 55,
      "byteLength": 16,
      "target": 34963
    },
    {
      "buffer": 56,
      "byteLength": 48,
      "target": 34962
    },
    {
      "buffer": 57,
      "byteLength": 576,
      "target": 34962
    },
    {
      "buffer": 58,
      "byteLength": 296,
      "target": 34963
    },
    {
      "buffer": 59,
      "byteLength": 576,
      "target": 34962
    },
    {
      "buffer": 60,
      "byteLength": 384,
      "target": 34962
    },
    {
      "buffer": 61,
      "byteLength": 1968,
      "target": 34962
    },
    {
      "buffer": 62,
      "byteLength": 848,
      "target": 34963
    },
    {
      "buffer": 63,
      "byteLength": 1968,
      "target": 34962
    },
    {
      "buffer": 64,
      "byteLength": 2624,
      "target": 34962
    },
    {
      "buffer": 65,
      "byteLength": 1312,
      "target": 34962
    },
    {
      "buffer": 61,
      "byteLength": 1968,
      "target": 34962
    },
    {
      "buffer": 66,
      "byteLength": 84,
      "target": 34963
    },
    {
      "buffer": 63,
      "byteLength": 1968,
      "target": 34962
    },
    {
      "buffer": 64,
      "byteLength": 2624,
      "target": 34962
    },
    {
      "buffer": 65,
      "byteLength": 1312,
      "target": 34962
    },
    {
      "buffer": 67,
      "byteLength": 336,
      "target": 34962
    },
    {
      "buffer": 68,
      "byteLength": 160,
      "target": 34963
    },
    {
      "buffer": 69,
      "byteLength": 336,
      "target": 34962
    },
    {
      "buffer": 70,
      "byteLength": 448,
      "target": 34962
    },
    {
      "buffer": 71,
      "byteLength": 224,
      "target": 34962
    },
    {
      "buffer": 72,
      "byteLength": 8064,
      "target": 34962
    },
    {
      "buffer": 73,
      "byteLength": 3192,
      "target": 34963
    },
    {
      "buffer": 74,
      "byteLength": 8064,
      "target": 34962
    },
    {
      "buffer": 72,
      "byteLength": 8064,
      "target": 34962
    },
    {
      "buffer": 75,
      "byteLength": 84,
      "target": 34963
    },
    {
      "buffer": 74,
      "byteLength": 8064,
      "target": 34962
    },
    {
      "buffer": 76,
      "byteLength": 7008,
      "target": 34962
    },
    {
      "buffer": 77,
      "byteLength": 3256,
      "target": 34963
    },
    {
      "buffer": 78,
      "byteLength": 7008,
      "target": 34962
    },
    {
      "buffer": 76,
      "byteLength": 7008,
      "target": 34962
    },
    {
      "buffer": 79,
      "byteLength": 180,
      "target": 34963
    },
    {
      "buffer": 78,
      "byteLength": 7008,
      "target": 34962
    },
    {
      "buffer": 80,
      "byteLength": 408,
      "target": 34962
    },
    {
      "buffer": 81,
      "byteLength": 232,
      "target": 34963
    },
    {
      "buffer": 82,
      "byteLength": 408,
      "target": 34962
    },
    {
      "buffer": 83,
      "byteLength": 4896,
      "target": 34962
    },
    {
      "buffer": 84,
      "byteLength": 2968,
      "target": 34963
    },
    {
      "buffer": 85,
      "byteLength": 4896,
      "target": 34962
    },
    {
      "buffer": 86,
      "byteLength": 4896,
      "target": 34962
    },
    {
      "buffer": 87,
      "byteLength": 2968,
      "target": 34963
    },
    {
      "buffer": 88,
      "byteLength": 4896,
      "target": 34962
    },
    {
      "buffer": 89,
      "byteLength": 8064,
      "target": 34962
    },
    {
      "buffer": 90,
      "byteLength": 3192,
      "target": 34963
    },
    {
      "buffer": 91,
      "byteLength": 8064,
      "target": 34962
    },
    {
      "buffer": 89,
      "byteLength": 8064,
      "target": 34962
    },
    {
      "buffer": 92,
      "byteLength": 84,
      "target": 34963
    },
    {
      "buffer": 91,
      "byteLength": 8064,
      "target": 34962
    },
    {
      "buffer": 93,
      "byteLength": 7008,
      "target": 34962
    },
    {
      "buffer": 94,
      "byteLength": 3256,
      "target": 34963
    },
    {
      "buffer": 95,
      "byteLength": 7008,
      "target": 34962
    },
    {
      "buffer": 93,
      "byteLength": 7008,
      "target": 34962
    },
    {
      "buffer": 96,
      "byteLength": 180,
      "target": 34963
    },
    {
      "buffer": 95,
      "byteLength": 7008,
      "target": 34962
    },
    {
      "buffer": 97,
      "byteLength": 408,
      "target": 34962
    },
    {
      "buffer": 98,
      "byteLength": 232,
      "target": 34963
    },
    {
      "buffer": 99,
      "byteLength": 408,
      "target": 34962
    }
  ],
  "buffers": [
    {
      "byteLength": 15360,
      "uri": "data:application/octet-stream;base64,"
    },
    {
      "byteLength": 6144,
      "uri": "data:application/octet-stream;base64,"
    },
    {
      "byteLength": 15360,
      "uri": "data:application/octet-stream;base64,"
    },
    {
      "byteLength": 144,
      "uri": "data:application/octet-stream;base64,"
    },
    {
      "byteLength": 288,
      "uri": "data:application/octet-stream;base64,"
    },
    {
      "byteLength": 136,
      "uri": "data:application/octet-stream;base64,"
    },
    {
      "byteLength": 288,
      "uri": "data:application/octet-stream;base64,"
    },
    {
      "byteLength": 6288,
      "uri": "data:application/octet-stream;base64,"
    },
    {
      "byteLength": 3396,
      "uri": "data:application/octet-stream;base64,"
    },
    {
      "byteLength": 6288,
      "uri": "data:application/octet-stream;base64,"
    },
    {
      "byteLength": 444,
      "uri": "data:application/octet-stream;base64,"
    },
    {
      "byteLength": 288,
      "uri": "data:application/octet-stream;base64,"
    },
    {
      "byteLength": 136,
      "uri": "data:application/octet-stream;base64,"
    },
    {
      "byteLength": 288,
      "uri": "data:application/octet-stream;base64,"
    },
    {
      "byteLength": 6288,
      "uri": "data:application/octet-stream;base64,"
    },
    {
      "byteLength": 3396,
      "uri": "data:application/octet-stream;base64,"
    },
    {
      "byteLength": 6288,
      "uri": "data:application/octet-stream;base64,"
    },
    {
      "byteLength": 444,
      "uri": "data:application/octet-stream;base64,"
    },
    {
      "byteLength": 15360,
      "uri": "data:application/octet-stream;base64,"
    },
    {
      "byteLength": 6144,
      "uri": "data:application/octet-stream;base64,"
    },
    {
      "byteLength": 15360,
      "uri": "data:application/octet-stream;base64,"
    },
    {
      "byteLength": 144,
      "uri": "data:application/octet-stream;base64,"
    },
    {
      "byteLength": 288,
      "uri": "data:application/octet-stream;base64,"
    },
    {
      "byteLength": 136,
      "uri": "data:application/octet-stream;base64,"
    },
    {
      "byteLength": 288,
      "uri": "data:application/octet-stream;base64,"
    },
    {
      "byteLength": 6288,
      "uri": "data:application/octet-stream;base64,"
    },
    {
      "byteLength": 3396,
      "uri": "data:application/octet-stream;base64,"
    },
    {
      "byteLength": 6288,
      "uri": "data:application/octet-stream;base64,"
    },
    {
      "byteLength": 444,
      "uri": "data:application/octet-stream;base64,"
    },
    {
      "byteLength": 288,
      "uri": "data:application/octet-stream;base64,"
    },
    {
      "byteLength": 136,
      "uri": "data:application/octet-stream;base64,"
    },
    {
      "byteLength": 288,
      "uri": "data:application/octet-stream;base64,"
    },
    {
      "byteLength": 6288,
      "uri": "data:application/octet-stream;base64,"
    },
    {
      "byteLength": 3396,
      "uri": "data:application/octet-stream;base64,"
    },
    {
      "byteLength": 6288,
      "uri": "data:application/octet-stream;base64,"
    },
    {
      "byteLength": 444,
      "uri": "data:application/octet-stream;base64,"
    },
    {
      "byteLength": 15360,
      "uri": "data:application/octet-stream;base64,"
    },
    {
      "byteLength": 6144,
      "uri": "data:application/octet-stream;base64,"
    },
    {
      "byteLength": 15360,
      "uri": "data:application/octet-stream;base64,"
    },
    {
      "byteLength": 144,
      "uri": "data:application/octet-stream;base64,"
    },
    {
      "byteLength": 288,
      "uri": "data:application/octet-stream;base64,"
    },
    {
      "byteLength": 136,
      "uri": "data:application/octet-stream;base64,"
    },
    {
      "byteLength": 288,
      "uri": "data:application/octet-stream;base64,"
    },
    {
      "byteLength": 6288,
      "uri": "data:application/octet-stream;base64,"
    },
    {
      "byteLength": 3396,
      "uri": "data:application/octet-stream;base64,"
    },
    {
      "byteLength": 6288,
      "uri": "data:application/octet-stream;base64,"
    },
    {
      "byteLength": 444,
      "uri": "data:application/octet-stream;base64,"
    },
    {
      "byteLength": 288,
      "uri": "data:application/octet-stream;base64,"
    },
    {
      "byteLength": 136,
      "uri": "data:application/octet-stream;base64,"
    },
    {
      "byteLength": 288,
      "uri": "data:application/octet-stream;base64,"
    },
    {
      "byteLength": 6288,
      "uri": "data:application/octet-stream;base64,"
    },
    {
      "byteLength": 3396,
      "uri": "data:application/octet-stream;base64,"
    },
    {
      "byteLength": 6288,
      "uri": "data:application/octet-stream;base64,"
    },
    {
      "byteLength": 444,
      "uri": "data:application/octet-stream;base64,"
    },
    {
      "byteLength": 48,
      "uri": "data:application/octet-stream;base64,"
    },
    {
      "byteLength": 16,
      "uri": "data:application/octet-stream;base64,"
    },
    {
      "byteLength": 48,
      "uri": "data:application/octet-stream;base64,"
    },
    {
      "byteLength": 576,
      "uri": "data:application/octet-stream;base64,"
    },
    {
      "byteLength": 296,
      "uri": "data:application/octet-stream;base64,"
    },
    {
      "byteLength": 576,
      "uri": "data:application/octet-stream;base64,"
    },
    {
      "byteLength": 384,
      "uri": "data:application/octet-stream;base64,"
    },
    {
      "byteLength": 1968,
      "uri": "data:application/octet-stream;base64,"
    },
    {
      "byteLength": 848,
      "uri": "data:application/octet-stream;base64,"
    },
    {
      "byteLength": 1968,
      "uri": "data:application/octet-stream;base64,"
    },
    {
      "byteLength": 2624,
      "uri": "data:application/octet-stream;base64,"
    },
    {
      "byteLength": 1312,
      "uri": "data:application/octet-stream;base64,"
    },
    {
      "byteLength": 84,
      "uri": "data:application/octet-stream;base64,"
    },
    {
      "byteLength": 336,
      "uri": "data:application/octet-stream;base64,"
    },
    {
      "byteLength": 160,
      "uri": "data:application/octet-stream;base64,"
    },
    {
      "byteLength": 336,
      "uri": "data:application/octet-stream;base64,"
    },
    {
      "byteLength": 448,
      "uri": "data:application/octet-stream;base64,"
    },
    {
      "byteLength": 224,
      "uri": "data:application/octet-stream;base64,"
    },
    {
      "byteLength": 8064,
      "uri": "data:application/octet-stream;base64,"
    },
    {
      "byteLength": 3192,
      "uri": "data:application/octet-stream;base64,"
    },
    {
      "byteLength": 8064,
      "uri": "data:application/octet-stream;base64,"
    },
    {
      "byteLength": 84,
      "uri": "data:application/octet-stream;base64,"
    },
    {
      "byteLength": 7008,
      "uri": "data:application/octet-stream;base64,"
    },
    {
      "byteLength": 3256,
      "uri": "data:application/octet-stream;base64,"
    },
    {
      "byteLength": 7008,
      "uri": "data:application/octet-stream;base64,"
    },
    {
      "byteLength": 180,
      "uri": "data:application/octet-stream;base64,"
    },
    {
      "byteLength": 408,
      "uri": "data:application/octet-stream;base64,"
    },
    {
      "byteLength": 232,
      "uri": "data:application/octet-stream;base64,"
    },
    {
      "byteLength": 408,
      "uri": "data:application/octet-stream;base64,"
    },
    {
      "byteLength": 4896,
      "uri": "data:application/octet-stream;base64,"
    },
    {
      "byteLength": 2968,
      "uri": "data:application/octet-stream;base64,"
    },
    {
      "byteLength": 4896,
      "uri": "data:application/octet-stream;base64,"
    },
    {
      "byteLength": 4896,
      "uri": "data:application/octet-stream;base64,"
    },
    {
      "byteLength": 2968,
      "uri": "data:application/octet-stream;base64,"
    },
    {
      "byteLength": 4896,
      "uri": "data:application/octet-stream;base64,"
    },
    {
      "byteLength": 8064,
      "uri": "data:application/octet-stream;base64,"
    },
    {
      "byteLength": 3192,
      "uri": "data:application/octet-stream;base64,"
    },
    {
      "byteLength": 8064,
      "uri": "data:application/octet-stream;base64,"
    },
    {
      "byteLength": 84,
      "uri": "data:application/octet-stream;base64,"
    },
    {
      "byteLength": 7008,
      "uri": "data:application/octet-stream;base64,"
    },
    {
      "byteLength": 3256,
      "uri": "data:application/octet-stream;base64,"
    },
    {
      "byteLength": 7008,
      "uri": "data:application/octet-stream;base64,"
    },
    {
      "byteLength": 180,
      "uri": "data:application/octet-stream;base64,"
    },
    {
      "byteLength": 408,
      "uri": "data:application/octet-stream;base64,"
    },
    {
      "byteLength": 232,
      "uri": "data:application/octet-stream;base64,"
    },
    {
      "byteLength": 408,
      "uri": "data:application/octet-stream;base64,"
    }
  ],
  "extensionsUsed": [
    "KHR_materials_specular",
    "KHR_materials_clearcoat",
    "KHR_materials_ior"
  ],
  "images": [
    {
      "uri": "textures/art.png"
    },
    {
      "uri": "textures/texture------wooden-door-500x500.png"
    }
  ],
  "materials": [
    {
      "doubleSided": true,
      "extensions": {
        "KHR_materials_specular": {
          "specularFactor": 0.6440908908843994
        }
      },
      "name": "besi",
      "pbrMetallicRoughness": {
        "baseColorFactor": [
          1.0,
          1.0,
          1.0,
          0.6198484897613525
        ],
        "metallicFactor": 0.8380303382873535,
        "roughnessFactor": 0.08045455813407898
      }
    },
    {
      "doubleSided": true,
      "name": "doorHandle.001",
      "pbrMetallicRoughness": {
        "baseColorFactor": [
          1.0,
          1.0,
          1.0,
          0.8986364006996155
        ],
        "metallicFactor": 0.9713636636734009,
        "roughnessFactor": 0.0501515232026577
      }
    },
    {
      "doubleSided": true,
      "extensions": {
        "KHR_materials_clearcoat": {
          "clearcoatFactor": 0.29863637685775757,
          "clearcoatRoughnessFactor": 0.03999999910593033
        }
      },
      "name": "floor",
      "pbrMetallicRoughness": {
        "baseColorFactor": [
          0.5413265824317932,
          0.514904797077179,
          0.514904797077179,
          1.0
        ],
        "metallicFactor": 0.3471212089061737,
        "roughnessFactor": 0.14106062054634094
      }
    },
    {
      "doubleSided": true,
      "name": "Material",
      "pbrMetallicRoughness": {
        "baseColorTexture": {
          "index": 0
        },
        "metallicFactor": 0.0,
        "roughnessFactor": 0.631969690322876
      }
    },
    {
      "doubleSided": true,
      "extensions": {
        "KHR_materials_specular": {
          "specularFactor": 0.48045456409454346
        }
      },
      "name": "matWood",
      "pbrMetallicRoughness": {
        "baseColorTexture": {
          "index": 1
        },
        "metallicFactor": 0.32893940806388855,
        "roughnessFactor": 0.17742425203323364
      }
    },
    {
      "alphaMode": "BLEND",
      "doubleSided": true,
      "extensions": {
        "KHR_materials_ior": {
          "ior": 1.0499999523162842
        },
        "KHR_materials_specular": {
          "specularFactor": 0.18954546749591827
        }
      },
      "name": "matGlass",
      "pbrMetallicRoughness": {
        "baseColorFactor": [
          1.0,
          1.0,
          1.0,
          0.056212130934000015
        ],
        "metallicFactor": 0.5046969652175903,
        "roughnessFactor": 0.6
      }
    }
  ],
  "meshes": [
    {
      "name": "ENGSEL.003_0",
      "primitives": [
        {
          "attributes": {
            "NORMAL": 2,
            "POSITION": 0
          },
          "indices": 1,
          "material": 0,
          "mode": 5
        },
        {
          "attributes": {
            "NORMAL": 5,
            "POSITION": 3
          },
          "indices": 4,
          "material": 0,
          "mode": 4
        }
      ]
    },
    {
      "name": "Cube.014_0",
      "primitives": [
        {
          "attributes": {
            "NORMAL": 8,
            "POSITION": 6
          },
          "indices": 7,
          "material": 0,
          "mode": 5
        }
      ]
    },
    {
      "name": "Cube.014_1",
      "primitives": [
        {
          "attributes": {
            "NORMAL": 11,
            "POSITION": 9
          },
          "indices": 10,
          "material": 1,
          "mode": 5
        },
        {
          "attributes": {
            "NORMAL": 14,
            "POSITION": 12
          },
          "indices": 13,
          "material": 1,
          "mode": 4
        }
      ]
    },
    {
      "name": "Cube.013_0",
      "primitives": [
        {
          "attributes": {
            "NORMAL": 17,
            "POSITION": 15
          },
          "indices": 16,
          "material": 0,
          "mode": 5
        }
      ]
    },
    {
      "name": "Cube.013_1",
      "primitives": [
        {
          "attributes": {
            "NORMAL": 20,
            "POSITION": 18
          },
          "indices": 19,
          "material": 1,
          "mode": 5
        },
        {
          "attributes": {
            "NORMAL": 23,
            "POSITION": 21
          },
          "indices": 22,
          "material": 1,
          "mode": 4
        }
      ]
    },
    {
      "name": "ENGSEL.002_0",
      "primitives": [
        {
          "attributes": {
            "NORMAL": 26,
            "POSITION": 24
          },
          "indices": 25,
          "material": 0,
          "mode": 5
        },
        {
          "attributes": {
            "NORMAL": 29,
            "POSITION": 27
          },
          "indices": 28,
          "material": 0,
          "mode": 4
        }
      ]
    },
    {
      "name": "Cube.012_0",
      "primitives": [
        {
          "attributes": {
            "NORMAL": 32,
            "POSITION": 30
          },
          "indices": 31,
          "material": 0,
          "mode": 5
        }
      ]
    },
    {
      "name": "Cube.012_1",
      "primitives": [
        {
          "attributes": {
            "NORMAL": 35,
            "POSITION": 33
          },
          "indices": 34,
          "material": 1,
          "mode": 5
        },
        {
          "attributes": {
            "NORMAL": 38,
            "POSITION": 36
          },
          "indices": 37,
          "material": 1,
          "mode": 4
        }
      ]
    },
    {
      "name": "Cube.011_0",
      "primitives": [
        {
          "attributes": {
            "NORMAL": 41,
            "POSITION": 39
          },
          "indices": 40,
          "material": 0,
          "mode": 5
        }
      ]
    },
    {
      "name": "Cube.011_1",
      "primitives": [
        {
          "attributes": {
            "NORMAL": 44,
            "POSITION": 42
          },
          "indices": 43,
          "material": 1,
          "mode": 5
        },
        {
          "attributes": {
            "NORMAL": 47,
            "POSITION": 45
          },
          "indices": 46,
          "material": 1,
          "mode": 4
        }
      ]
    },
    {
      "name": "ENGSEL.001_0",
      "primitives": [
        {
          "attributes": {
            "NORMAL": 50,
            "POSITION": 48
          },
          "indices": 49,
          "material": 0,
          "mode": 5
        },
        {
          "attributes": {
            "NORMAL": 53,
            "POSITION": 51
          },
          "indices": 52,
          "material": 0,
          "mode": 4
        }
      ]
    },
    {
      "name": "Cube.006_0",
      "primitives": [
        {
          "attributes": {
            "NORMAL": 56,
            "POSITION": 54
          },
          "indices": 55,
          "material": 0,
          "mode": 5
        }
      ]
    },
    {
      "name": "Cube.006_1",
      "primitives": [
        {
          "attributes": {
            "NORMAL": 59,
            "POSITION": 57
          },
          "indices": 58,
          "material": 1,
          "mode": 5
        },
        {
          "attributes": {
            "NORMAL": 62,
            "POSITION": 60
          },
          "indices": 61,
          "material": 1,
          "mode": 4
        }
      ]
    },
    {
      "name": "Cube.005_0",
      "primitives": [
        {
          "attributes": {
            "NORMAL": 65,
            "POSITION": 63
          },
          "indices": 64,
          "material": 0,
          "mode": 5
        }
      ]
    },
    {
      "name": "Cube.005_1",
      "primitives": [
        {
          "attributes": {
            "NORMAL": 68,
            "POSITION": 66
          },
          "indices": 67,
          "material": 1,
          "mode": 5
        },
        {
          "attributes": {
            "NORMAL": 71,
            "POSITION": 69
          },
          "indices": 70,
          "material": 1,
          "mode": 4
        }
      ]
    },
    {
      "name": "Plane_0",
      "primitives": [
        {
          "attributes": {
            "NORMAL": 74,
            "POSITION": 72
          },
          "indices": 73,
          "material": 2,
          "mode": 5
        }
      ]
    },
    {
      "name": "outline pintu_0",
      "primitives": [
        {
          "attributes": {
            "NORMAL": 77,
            "POSITION": 75,
            "TEXCOORD_0": 78
          },
          "indices": 76,
          "material": 3,
          "mode": 5
        }
      ]
    },
    {
      "name": "pintu_0",
      "primitives": [
        {
          "attributes": {
            "NORMAL": 81,
            "POSITION": 79,
            "TANGENT": 82,
            "TEXCOORD_0": 83
          },
          "indices": 80,
          "material": 4,
          "mode": 5
        },
        {
          "attributes": {
            "NORMAL": 86,
            "POSITION": 84,
            "TANGENT": 87,
            "TEXCOORD_0": 88
          },
          "indices": 85,
          "material": 4,
          "mode": 4
        }
      ]
    },
    {
      "name": "pintu_1",
      "primitives": [
        {
          "attributes": {
            "NORMAL": 91,
            "POSITION": 89,
            "TANGENT": 92,
            "TEXCOORD_0": 93
          },
          "indices": 90,
          "material": 5,
          "mode": 5
        }
      ]
    },
    {
      "name": "kunci.001_0",
      "primitives": [
        {
          "attributes": {
            "NORMAL": 96,
            "POSITION": 94
          },
          "indices": 95,
          "material": 0,
          "mode": 5
        },
        {
          "attributes": {
            "NORMAL": 99,
            "POSITION": 97
          },
          "indices": 98,
          "material": 0,
          "mode": 4
        }
      ]
    },
    {
      "name": "Cylinder.002_0",
      "primitives": [
        {
          "attributes": {
            "NORMAL": 102,
            "POSITION": 100
          },
          "indices": 101,
          "material": 1,
          "mode": 5
        },
        {
          "attributes": {
            "NORMAL": 105,
            "POSITION": 103
          },
          "indices": 104,
          "material": 1,
          "mode": 4
        }
      ]
    },
    {
      "name": "Cube.002_0",
      "primitives": [
        {
          "attributes": {
            "NORMAL": 108,
            "POSITION": 106
          },
          "indices": 107,
          "material": 1,
          "mode": 5
        }
      ]
    },
    {
      "name": "gagang pintu.001_0",
      "primitives": [
        {
          "attributes": {
            "NORMAL": 111,
            "POSITION": 109
          },
          "indices": 110,
          "material": 0,
          "mode": 5
        }
      ]
    },
    {
      "name": "gagang pintu_0",
      "primitives": [
        {
          "attributes": {
            "NORMAL": 114,
            "POSITION": 112
          },
          "indices": 113,
          "material": 0,
          "mode": 5
        }
      ]
    },
    {
      "name": "kunci_0",
      "primitives": [
        {
          "attributes": {
            "NORMAL": 117,
            "POSITION": 115
          },
          "indices": 116,
          "material": 0,
          "mode": 5
        },
        {
          "attributes": {
            "NORMAL": 120,
            "POSITION": 118
          },
          "indices": 119,
          "material": 0,
          "mode": 4
        }
      ]
    },
    {
      "name": "Cylinder.001_0",
      "primitives": [
        {
          "attributes": {
            "NORMAL": 123,
            "POSITION": 121
          },
          "indices": 122,
          "material": 1,
          "mode": 5
        },
        {
          "attributes": {
            "NORMAL": 126,
            "POSITION": 124
          },
          "indices": 125,
          "material": 1,
          "mode": 4
        }
      ]
    },
    {
      "name": "Cube.001_0",
      "primitives": [
        {
          "attributes": {
            "NORMAL": 129,
            "POSITION": 127
          },
          "indices": 128,
          "material": 1,
          "mode": 5
        }
      ]
    }
  ],
  "nodes": [
    {
      "mesh": 0,
      "name": "ENGSEL.003_0"
    },
    {
      "mesh": 1,
      "name": "Cube.014_0"
    },
    {
      "mesh": 2,
      "name": "Cube.014_1"
    },
    {
      "children": [
        1,
        2
      ],
      "name": "Cube.014",
      "rotation": [
        0.0033537893100668223,
        0.001422517386013288,
        0.2349690008026453,
        0.9719960376479714
      ],
      "scale": [
        1.0000056028366089,
        1.0000041723251343,
        0.9999960660934448
      ],
      "translation": [
        -0.024660000577569008,
        -0.0012499999720603228,
        -0.000750000006519258
      ]
    },
    {
      "mesh": 3,
      "name": "Cube.013_0"
    },
    {
      "mesh": 4,
      "name": "Cube.013_1"
    },
    {
      "children": [
        4,
        5
      ],
      "name": "Cube.013",
      "rotation": [
        0.0,
        0.0,
        -0.7163169341541943,
        0.6977750710966505
      ],
      "scale": [
        1.0000038146972656,
        1.0000038146972656,
        1.0
      ],
      "translation": [
        0.024410000070929527,
        -0.0004900000058114529,
        0.0020699999295175076
      ]
    },
    {
      "children": [
        0,
        3,
        6
      ],
      "name": "Classroom Door",
      "rotation": [
        -0.7071067811865475,
        0.0,
        0.0,
        0.7071067811865476
      ],
      "scale": [
        1.0,
        1.0,
        1.0
      ],
      "translation": [
        2.41621994972229,
        0.3002299964427948,
        1.6144200563430786
      ]
    },
    {
      "mesh": 5,
      "name": "ENGSEL.002_0"
    },
    {
      "mesh": 6,
      "name": "Cube.012_0"
    },
    {
      "mesh": 7,
      "name": "Cube.012_1"
    },
    {
      "children": [
        9,
        10
      ],
      "name": "Cube.012",
      "rotation": [
        0.0,
        0.0,
        -0.7163169341541943,
        0.6977750710966505
      ],
      "scale": [
        1.0000038146972656,
        1.0000038146972656,
        1.0
      ],
      "translation": [
        0.024410000070929527,
        -0.0004900000058114529,
        0.0020699999295175076
      ]
    },
    {
      "mesh": 8,
      "name": "Cube.011_0"
    },
    {
      "mesh": 9,
      "name": "Cube.011_1"
    },
    {
      "children": [
        12,
        13
      ],
      "name": "Cube.011",
      "rotation": [
        0.0033537893100668223,
        0.001422517386013288,
        0.2349690008026453,
        0.9719960376479714
      ],
      "scale": [
        1.0000056028366089,
        1.0000041723251343,
        0.9999960660934448
      ],
      "translation": [
        -0.024660000577569008,
        -0.0012499999720603228,
        -0.000750000006519258
      ]
    },
    {
      "children": [
        8,
        11,
        14
      ],
      "name": "ENGSEL.002",
      "rotation": [
        0.0,
        0.0,
        0.0,
        1.0
      ],
      "scale": [
        1.0,
        1.0,
        1.0
      ],
      "translation": [
        2.41621994972229,
        0.3002299964427948,
        5.375820159912109
      ]
    },
    {
      "mesh": 10,
      "name": "ENGSEL.001_0"
    },
    {
      "mesh": 11,
      "name": "Cube.006_0"
    },
    {
      "mesh": 12,
      "name": "Cube.006_1"
    },
    {
      "children": [
        17,
        18
      ],
      "name": "Cube.006",
      "rotation": [
        0.0033537893100668223,
        0.001422517386013288,
        0.2349690008026453,
        0.9719960376479714
      ],
      "scale": [
        1.0000056028366089,
        1.0000041723251343,
        0.9999960660934448
      ],
      "translation": [
        -0.024660000577569008,
        -0.0012499999720603228,
        -0.000750000006519258
      ]
    },
    {
      "mesh": 13,
      "name": "Cube.005_0"
    },
    {
      "mesh": 14,
      "name": "Cube.005_1"
    },
    {
      "children": [
        20,
        21
      ],
      "name": "Cube.005",
      "rotation": [
        0.0,
        0.0,
        -0.7163169341541943,
        0.6977750710966505
      ],
      "scale": [
        1.0000038146972656,
        1.0000038146972656,
        1.0
      ],
      "translation": [
        0.024410000070929527,
        -0.0004900000058114529,
        0.0020699999295175076
      ]
    },
    {
      "children": [
        16,
        19,
        22
      ],
      "name": "ENGSEL.001",
      "rotation": [
        0.0,
        0.0,
        0.0,
        1.0
      ],
      "scale": [
        1.0,
        1.0,
        1.0
      ],
      "translation": [
        2.41621994972229,
        0.3002299964427948,
        9.60377025604248
      ]
    },
    {
      "mesh": 15,
      "name": "Plane_0"
    },
    {
      "children": [
        24
      ],
      "name": "Plane"
    },
    {
      "mesh": 16,
      "name": "outline pintu_0"
    },
    {
      "children": [
        26
      ],
      "name": "outline pintu",
      "rotation": [
        0.0,
        0.0,
        0.0,
        1.0
      ],
      "scale": [
        1.0,
        0.5481100082397461,
        1.0
      ],
      "translation": [
        0.013729999773204327,
        0.09989000111818314,
        6.991330146789551
      ]
    },
    {
      "mesh": 17,
      "name": "pintu_0"
    },
    {
      "mesh": 18,
      "name": "pintu_1"
    },
    {
      "mesh": 19,
      "name": "kunci.001_0"
    },
    {
      "mesh": 20,
      "name": "Cylinder.002_0"
    },
    {
      "mesh": 21,
      "name": "Cube.002_0"
    },
    {
      "children": [
        32
      ],
      "name": "Cube.002",
      "rotation": [
        0.0,
        0.0,
        1.0,
        0.0
      ],
      "scale": [
        1.0,
        1.0,
        1.0
      ],
      "translation": [
        0.0,
        -0.11027000099420547,
        0.0
      ]
    },
    {
      "children": [
        31,
        33
      ],
      "name": "Cylinder.002",
      "rotation": [
        0.7071067811865475,
        0.0,
        0.0,
        0.7071067811865476
      ],
      "scale": [
        1.0,
        1.0,
        1.0
      ],
      "translation": [
        0.0,
        0.02054000087082386,
        0.055709999054670334
      ]
    },
    {
      "children": [
        30,
        34
      ],
      "name": "kunci.001",
      "rotation": [
        0.0,
        0.0,
        0.0,
        1.0
      ],
      "scale": [
        1.0,
        1.0,
        1.0
      ],
      "translation": [
        -4.330039978027344,
        0.08968999981880188,
        -6.7734599113464355
      ]
    },
    {
      "mesh": 22,
      "name": "gagang pintu.001_0"
    },
    {
      "children": [
        36
      ],
      "name": "gagang pintu.001",
      "rotation": [
        0.0,
        0.0,
        0.0,
        1.0
      ],
      "scale": [
        1.0,
        1.0,
        1.0
      ],
      "translation": [
        -4.330039978027344,
        0.06391000002622604,
        -6.142199993133545
      ]
    },
    {
      "mesh": 23,
      "name": "gagang pintu_0"
    },
    {
      "children": [
        38
      ],
      "name": "gagang pintu",
      "rotation": [
        0.0,
        0.0,
        0.0,
        1.0
      ],
      "scale": [
        1.0,
        1.0,
        1.0
      ],
      "translation": [
        -4.330039978027344,
        -0.36535999178886414,
        -6.142199993133545
      ]
    },
    {
      "mesh": 24,
      "name": "kunci_0"
    },
    {
      "mesh": 25,
      "name": "Cylinder.001_0"
    },
    {
      "mesh": 26,
      "name": "Cube.001_0"
    },
    {
      "children": [
        42
      ],
      "name": "Cube.001",
      "rotation": [
        0.0,
        0.0,
        0.0,
        1.0
      ],
      "scale": [
        1.0,
        1.0,
        1.0
      ],
      "translation": [
        0.0,
        -0.11027000099420547,
        0.0
      ]
    },
    {
      "children": [
        41,
        43
      ],
      "name": "Cylinder.001",
      "rotation": [
        0.7071067811865475,
        0.0,
        0.0,
        0.7071067811865476
      ],
      "scale": [
        1.0,
        1.0,
        1.0
      ],
      "translation": [
        0.0,
        -0.02054000087082386,
        0.055709999054670334
      ]
    },
    {
      "children": [
        40,
        44
      ],
      "name": "kunci",
      "rotation": [
        0.0,
        0.0,
        0.0,
        1.0
      ],
      "scale": [
        1.0,
        1.0,
        1.0
      ],
      "translation": [
        -4.330039978027344,
        -0.3948099911212921,
        -6.7734599113464355
      ]
    },
    {
      "children": [
        28,
        29,
        35,
        37,
        39,
        45
      ],
      "name": "pintu",
      "rotation": [
        0.0,
        0.0,
        -0.5262788132698728,
        0.8503120666574445
      ],
      "scale": [
        0.9999972581863403,
        0.9999972581863403,
        1.0
      ],
      "translation": [
        2.3906800746917725,
        0.2992199957370758,
        11.600000381469727
      ]
    }
  ],
  "samplers": [
    {
      "magFilter": 9729,
      "minFilter": 9987,
      "wrapS": 10497,
      "wrapT": 10497
    },
    {
      "magFilter": 9729,
      "minFilter": 9987,
      "wrapS": 10497,
      "wrapT": 10497
    }
  ],
  "scene": 0,
  "scenes": [
    {
      "nodes": [
        7
      ]
    }
  ],
  "textures": [
    {
      "sampler": 0,
      "source": 0
    },
    {
      "sampler": 1,
      "source": 1
    }
  ]
}
