{
  "accessors": [
    {
      "bufferView": 0,
      "componentType": 5126,
      "count": 166,
      "max": [
        2.0616455078125,
        -2.1444554328918457,
        1.9087353944778442
      ],
      "min": [
        -2.020159959793091,
        -3.1575698852539063,
        -2.173069953918457
      ],
      "type": "VEC3"
    },
    {
      "bufferView": 1,
      "componentType": 5125,
      "count": 224,
      "type": "SCALAR"
    },
    {
      "bufferView": 2,
      "componentType": 5126,
      "count": 166,
      "type": "VEC3"
    },
    {
      "bufferView": 3,
      "componentType": 5126,
      "count": 166,
      "type": "VEC4"
    },
    {
      "bufferView": 4,
      "componentType": 5126,
      "count": 166,
      "type": "VEC2"
    },
    {
      "bufferView": 5,
      "componentType": 5126,
      "count": 256,
      "max": [
        1.3792517185211182,
        1.2756366729736328,
        -0.5983341932296753
      ],
      "min": [
        -1.732699990272522,
        -2.45455002784729,
        -2.064850091934204
      ],
      "type": "VEC3"
    },
    {
      "bufferView": 6,
      "componentType": 5125,
      "count": 314,
      "type": "SCALAR"
    },
    {
      "bufferView": 7,
      "componentType": 5126,
      "count": 256,
      "type": "VEC3"
    },
    {
      "bufferView": 8,
      "componentType": 5126,
      "count": 256,
      "type": "VEC4"
    },
    {
      "bufferView": 9,
      "componentType": 5126,
      "count": 256,
      "type": "VEC2"
    },
    {
      "bufferView": 10,
      "componentType": 5126,
      "count": 256,
      "max": [
        1.3792517185211182,
        1.2756366729736328,
        1.8062437772750854
      ],
      "min": [
        -1.732699990272522,
        -2.45455002784729,
        0.3397279977798462
      ],
      "type": "VEC3"
    },
    {
      "bufferView": 11,
      "componentType": 5125,
      "count": 315,
      "type": "SCALAR"
    },
    {
      "bufferView": 12,
      "componentType": 5126,
      "count": 256,
      "type": "VEC3"
    },
    {
      "bufferView": 13,
      "componentType": 5126,
      "count": 256,
      "type": "VEC4"
    },
    {
      "bufferView": 14,
      "componentType": 5126,
      "count": 256,
      "type": "VEC2"
    },
    {
      "bufferView": 15,
      "componentType": 5126,
      "count": 30,
      "max": [
        0.06934598088264465,
        3.156716823577881,
        -0.05551094189286232
      ],
      "min": [
        -0.021060999482870102,
        2.4430201053619385,
        -0.17840300500392914
      ],
      "type": "VEC3"
    },
    {
      "bufferView": 16,
      "componentType": 5125,
      "count": 38,
      "type": "SCALAR"
    },
    {
      "bufferView": 17,
      "componentType": 5126,
      "count": 30,
      "type": "VEC3"
    },
    {
      "bufferView": 18,
      "componentType": 5126,
      "count": 30,
      "type": "VEC4"
    },
    {
      "bufferView": 19,
      "componentType": 5126,
      "count": 30,
      "type": "VEC2"
    },
    {
      "bufferView": 20,
      "componentType": 5126,
      "count": 109,
      "max": [
        0.9120330810546875,
        2.544267177581787,
        0.7557270526885986
      ],
      "min": [
        -0.8671619892120361,
        -2.36188006401062,
        -1.02006995677948
      ],
      "type": "VEC3"
    },
    {
      "bufferView": 21,
      "componentType": 5125,
      "count": 284,
      "type": "SCALAR"
    },
    {
      "bufferView": 22,
      "componentType": 5126,
      "count": 109,
      "type": "VEC3"
    },
    {
      "bufferView": 23,
      "componentType": 5126,
      "count": 109,
      "type": "VEC4"
    },
    {
      "bufferView": 24,
      "componentType": 5126,
      "count": 109,
      "type": "VEC2"
    },
    {
      "bufferView": 25,
      "componentType": 5126,
      "count": 634,
      "max": [
        1.0510996580123901,
        2.7493808269500732,
        0.8642661571502686
      ],
      "min": [
        -0.9009829759597778,
        -1.0506700277328491,
        -1.059309959411621
      ],
      "type": "VEC3"
    },
    {
      "bufferView": 26,
      "componentType": 5125,
      "count": 1795,
      "type": "SCALAR"
    },
    {
      "bufferView": 27,
      "componentType": 5126,
      "count": 634,
      "type": "VEC3"
    },
    {
      "bufferView": 28,
      "componentType": 5126,
      "count": 634,
      "type": "VEC4"
    },
    {
      "bufferView": 29,
      "componentType": 5126,
      "count": 634,
      "type": "VEC2"
    },
    {
      "bufferView": 30,
      "componentType": 5126,
      "count": 4,
      "max": [
        0.020736999809741974,
        5.235184192657471,
        0.7115747928619385
      ],
      "min": [
        0.020736999809741974,
        2.7153899669647217,
        -0.9759250283241272
      ],
      "type": "VEC3"
    },
    {
      "bufferView": 31,
      "componentType": 5125,
      "count": 4,
      "type": "SCALAR"
    },
    {
      "bufferView": 32,
      "componentType": 5126,
      "count": 4,
      "type": "VEC3"
    },
    {
      "bufferView": 33,
      "componentType": 5126,
      "count": 4,
      "type": "VEC4"
    },
    {
      "bufferView": 34,
      "componentType": 5126,
      "count": 4,
      "type": "VEC2"
    }
  ],
  "asset": {
    "version": "2.0"
  },
  "bufferViews": [
    {
      "buffer": 0,
      "byteLength": 1992,
      "target": 34962
    },
    {
      "buffer": 1,
      "byteLength": 896,
      "target": 34963
    },
    {
      "buffer": 2,
      "byteLength": 1992,
      "target": 34962
    },
    {
      "buffer": 3,
      "byteLength": 2656,
      "target": 34962
    },
    {
      "buffer": 4,
      "byteLength": 1328,
      "target": 34962
    },
    {
      "buffer": 5,
      "byteLength": 3072,
      "target": 34962
    },
    {
      "buffer": 6,
      "byteLength": 1256,
      "target": 34963
    },
    {
      "buffer": 7,
      "byteLength": 3072,
      "target": 34962
    },
    {
      "buffer": 8,
      "byteLength": 4096,
      "target": 34962
    },
    {
      "buffer": 9,
      "byteLength": 2048,
      "target": 34962
    },
    {
      "buffer": 10,
      "byteLength": 3072,
      "target": 34962
    },
    {
      "buffer": 11,
      "byteLength": 1260,
      "target": 34963
    },
    {
      "buffer": 12,
      "byteLength": 3072,
      "target": 34962
    },
    {
      "buffer": 13,
      "byteLength": 4096,
      "target": 34962
    },
    {
      "buffer": 14,
      "byteLength": 2048,
      "target": 34962
    },
    {
      "buffer": 15,
      "byteLength": 360,
      "target": 34962
    },
    {
      "buffer": 16,
      "byteLength": 152,
      "target": 34963
    },
    {
      "buffer": 17,
      "byteLength": 360,
      "target": 34962
    },
    {
      "buffer": 18,
      "byteLength": 480,
      "target": 34962
    },
    {
      "buffer": 19,
      "byteLength": 240,
      "target": 34962
    },
    {
      "buffer": 20,
      "byteLength": 1308,
      "target": 34962
    },
    {
      "buffer": 21,
      "byteLength": 1136,
      "target": 34963
    },
    {
      "buffer": 22,
      "byteLength": 1308,
      "target": 34962
    },
    {
      "buffer": 23,
      "byteLength": 1744,
      "target": 34962
    },
    {
      "buffer": 24,
      "byteLength": 872,
      "target": 34962
    },
    {
      "buffer": 25,
      "byteLength": 7608,
      "target": 34962
    },
    {
      "buffer": 26,
      "byteLength": 7180,
      "target": 34963
    },
    {
      "buffer": 27,
      "byteLength": 7608,
      "target": 34962
    },
    {
      "buffer": 28,
      "byteLength": 10144,
      "target": 34962
    },
    {
      "buffer": 29,
      "byteLength": 5072,
      "target": 34962
    },
    {
      "buffer": 30,
      "byteLength": 48,
      "target": 34962
    },
    {
      "buffer": 31,
      "byteLength": 16,
      "target": 34963
    },
    {
      "buffer": 32,
      "byteLength": 48,
      "target": 34962
    },
    {
      "buffer": 33,
      "byteLength": 64,
      "target": 34962
    },
    {
      "buffer": 34,
      "byteLength": 32,
      "target": 34962
    }
  ],
  "buffers": [
    {
      "byteLength": 1992,
      "uri": "data:application/octet-stream;base64,"
    },
    {
      "byteLength": 896,
      "uri": "data:application/octet-stream;base64,"
    },
    {
      "byteLength": 1992,
      "uri": "data:application/octet-stream;base64,"
    },
    {
      "byteLength": 2656,
      "uri": "data:application/octet-stream;base64,"
    },
    {
      "byteLength": 1328,
      "uri": "data:application/octet-stream;base64,"
    },
    {
      "byteLength": 3072,
      "uri": "data:application/octet-stream;base64,"
    },
    {
      "byteLength": 1256,
      "uri": "data:application/octet-stream;base64,"
    },
    {
      "byteLength": 3072,
      "uri": "data:application/octet-stream;base64,"
    },
    {
      "byteLength": 4096,
      "uri": "data:application/octet-stream;base64,"
    },
    {
      "byteLength": 2048,
      "uri": "data:application/octet-stream;base64,"
    },
    {
      "byteLength": 3072,
      "uri": "data:application/octet-stream;base64,"
    },
    {
      "byteLength": 1260,
      "uri": "data:application/octet-stream;base64,"
    },
    {
      "byteLength": 3072,
      "uri": "data:application/octet-stream;base64,"
    },
    {
      "byteLength": 4096,
      "uri": "data:application/octet-stream;base64,"
    },
    {
      "byteLength": 2048,
      "uri": "data:application/octet-stream;base64,"
    },
    {
      "byteLength": 360,
      "uri": "data:application/octet-stream;base64,"
    },
    {
      "byteLength": 152,
      "uri": "data:application/octet-stream;base64,"
    },
    {
      "byteLength": 360,
      "uri": "data:application/octet-stream;base64,"
    },
    {
      "byteLength": 480,
      "uri": "data:application/octet-stream;base64,"
    },
    {
      "byteLength": 240,
      "uri": "data:application/octet-stream;base64,"
    },
    {
      "byteLength": 1308,
      "uri": "data:application/octet-stream;base64,"
    },
    {
      "byteLength": 1136,
      "uri": "data:application/octet-stream;base64,"
    },
    {
      "byteLength": 1308,
      "uri": "data:application/octet-stream;base64,"
    },
    {
      "byteLength": 1744,
      "uri": "data:application/octet-stream;base64,"
    },
    {
      "byteLength": 872,
      "uri": "data:application/octet-stream;base64,"
    },
    {
      "byteLength": 7608,
      "uri": "data:application/octet-stream;base64,"
    },
    {
      "byteLength": 7180,
      "uri": "data:application/octet-stream;base64,"
    },
    {
      "byteLength": 7608,
      "uri": "data:application/octet-stream;base64,"
    },
    {
      "byteLength": 10144,
      "uri": "data:application/octet-stream;base64,"
    },
    {
      "byteLength": 5072,
      "uri": "data:application/octet-stream;base64,"
    },
    {
      "byteLength": 48,
      "uri": "data:application/octet-stream;base64,"
    },
    {
      "byteLength": 16,
      "uri": "data:application/octet-stream;base64,"
    },
    {
      "byteLength": 48,
      "uri": "data:application/octet-stream;base64,"
    },
    {
      "byteLength": 64,
      "uri": "data:application/octet-stream;base64,"
    },
    {
      "byteLength": 32,
      "uri": "data:application/octet-stream;base64,"
    }
  ],
  "extensionsUsed": [
    "KHR_materials_ior",
    "KHR_materials_emissive_strength"
  ],
  "images": [
    {
      "uri": "textures/initialShadingGroup_albedo.comb.png"
    },
    {
      "uri": "textures/initialShadingGroup_AO.png"
    }
  ],
  "materials": [
    {
      "alphaMode": "BLEND",
      "doubleSided": true,
      "extensions": {
        "KHR_materials_emissive_strength": {
          "emissiveStrength": 0.0
        },
        "KHR_materials_ior": {
          "ior": 1.0499999523162842
        }
      },
      "name": "initialShadingGroup",
      "occlusionTexture": {
        "index": 1
      },
      "pbrMetallicRoughness": {
        "baseColorTexture": {
          "index": 0
        },
        "roughnessFactor": 0.6
      }
    }
  ],
  "meshes": [
    {
      "name": "defaultMaterial",
      "primitives": [
        {
          "attributes": {
            "NORMAL": 2,
            "POSITION": 0,
            "TANGENT": 3,
            "TEXCOORD_0": 4
          },
          "indices": 1,
          "material": 0,
          "mode": 5
        }
      ]
    },
    {
      "name": "defaultMaterial",
      "primitives": [
        {
          "attributes": {
            "NORMAL": 7,
            "POSITION": 5,
            "TANGENT": 8,
            "TEXCOORD_0": 9
          },
          "indices": 6,
          "material": 0,
          "mode": 5
        }
      ]
    },
    {
      "name": "defaultMaterial",
      "primitives": [
        {
          "attributes": {
            "NORMAL": 12,
            "POSITION": 10,
            "TANGENT": 13,
            "TEXCOORD_0": 14
          },
          "indices": 11,
          "material": 0,
          "mode": 5
        }
      ]
    },
    {
      "name": "defaultMaterial",
      "primitives": [
        {
          "attributes": {
            "NORMAL": 17,
            "POSITION": 15,
            "TANGENT": 18,
            "TEXCOORD_0": 19
          },
          "indices": 16,
          "material": 0,
          "mode": 5
        }
      ]
    },
    {
      "name": "defaultMaterial",
      "primitives": [
        {
          "attributes": {
            "NORMAL": 22,
            "POSITION": 20,
            "TANGENT": 23,
            "TEXCOORD_0": 24
          },
          "indices": 21,
          "material": 0,
          "mode": 5
        }
      ]
    },
    {
      "name": "defaultMaterial",
      "primitives": [
        {
          "attributes": {
            "NORMAL": 27,
            "POSITION": 25,
            "TANGENT": 28,
            "TEXCOORD_0": 29
          },
          "indices": 26,
          "material": 0,
          "mode": 5
        }
      ]
    },
    {
      "name": "defaultMaterial",
      "primitives": [
        {
          "attributes": {
            "NORMAL": 32,
            "POSITION": 30,
            "TANGENT": 33,
            "TEXCOORD_0": 34
          },
          "indices": 31,
          "material": 0,
          "mode": 5
        }
      ]
    }
  ],
  "nodes": [
    {
      "mesh": 0,
      "name": "defaultMaterial"
    },
    {
      "children": [
        0
      ],
      "name": "pCylinder1"
    },
    {
      "mesh": 1,
      "name": "defaultMaterial"
    },
    {
      "children": [
        2
      ],
      "name": "Candle"
    },
    {
      "mesh": 2,
      "name": "defaultMaterial"
    },
    {
      "children": [
        4
      ],
      "name": "Candle"
    },
    {
      "mesh": 3,
      "name": "defaultMaterial"
    },
    {
      "children": [
        6
      ],
      "name": "Candle"
    },
    {
      "mesh": 4,
      "name": "defaultMaterial"
    },
    {
      "children": [
        8
      ],
      "name": "Candle"
    },
    {
      "mesh": 5,
      "name": "defaultMaterial"
    },
    {
      "children": [
        10
      ],
      "name": "Candle"
    },
    {
      "mesh": 6,
      "name": "defaultMaterial"
    },
    {
      "children": [
        12
      ],
      "name": "Candle"
    },
    {
      "children": [
        1,
        3,
        5,
        7,
        9,
        11,
        13
      ],
      "name": "Stylised Candle",
      "rotation": [
        2.1855700111022284e-08,
        0.0,
        0.0,
        0.9999999999999998
      ],
      "scale": [
        1.0,
        1.0,
        1.0
      ],
      "translation": [
        0.0,
        0.0,
        0.0
      ]
    }
  ],
  "samplers": [
    {
      "magFilter": 9729,
      "minFilter": 9987,
      "wrapS": 10497,
      "wrapT": 10497
    },
    {
      "magFilter": 9729,
      "minFilter": 9987,
      "wrapS": 10497,
      "wrapT": 10497
    }
  ],
  "scene": 0,
  "scenes": [
    {
      "nodes": [
        14
      ]
    }
  ],
  "textures": [
    {
      "sampler": 0,
      "source": 0
    },
    {
      "sampler": 1,
      "source": 1
    }
  ]
}
