{
  "accessors": [
    {
      "bufferView": 0,
      "componentType": 5126,
      "count": 4,
      "max": [
        0.500000536441803,
        0.500000536441803,
        0.0
      ],
      "min": [
        -0.5,
        -0.5,
        0.0
      ],
      "type": "VEC3"
    },
    {
      "bufferView": 1,
      "componentType": 5125,
      "count": 4,
      "type": "SCALAR"
    },
    {
      "bufferView": 2,
      "componentType": 5126,
      "count": 4,
      "type": "VEC3"
    },
    {
      "bufferView": 3,
      "componentType": 5126,
      "count": 4,
      "type": "VEC4"
    },
    {
      "bufferView": 4,
      "componentType": 5126,
      "count": 4,
      "type": "VEC2"
    },
    {
      "bufferView": 5,
      "componentType": 5126,
      "count": 120,
      "max": [
        0.052140917629003525,
        1.7418872117996216,
        0.11082755774259567
      ],
      "min": [
        0.013544600456953049,
        1.7033499479293823,
        0.09164509922266006
      ],
      "type": "VEC3"
    },
    {
      "bufferView": 6,
      "componentType": 5125,
      "count": 386,
      "type": "SCALAR"
    },
    {
      "bufferView": 7,
      "componentType": 5126,
      "count": 120,
      "type": "VEC3"
    },
    {
      "bufferView": 8,
      "componentType": 5126,
      "count": 120,
      "type": "VEC4"
    },
    {
      "bufferView": 9,
      "componentType": 5126,
      "count": 120,
      "type": "VEC2"
    },
    {
      "bufferView": 10,
      "componentType": 5126,
      "count": 120,
      "max": [
        -0.013815199956297874,
        1.7419265508651733,
        0.11082766205072403
      ],
      "min": [
        -0.05225810036063194,
        1.7033100128173828,
        0.09164520353078842
      ],
      "type": "VEC3"
    },
    {
      "bufferView": 11,
      "componentType": 5125,
      "count": 371,
      "type": "SCALAR"
    },
    {
      "bufferView": 12,
      "componentType": 5126,
      "count": 120,
      "type": "VEC3"
    },
    {
      "bufferView": 13,
      "componentType": 5126,
      "count": 120,
      "type": "VEC4"
    },
    {
      "bufferView": 14,
      "componentType": 5126,
      "count": 120,
      "type": "VEC2"
    },
    {
      "bufferView": 15,
      "componentType": 5126,
      "count": 2162,
      "max": [
        0.09579427540302277,
        1.8330882787704468,
        0.13846278190612793
      ],
      "min": [
        -0.09610729664564133,
        1.520609974861145,
        -0.08657769858837128
      ],
      "type": "VEC3"
    },
    {
      "bufferView": 16,
      "componentType": 5125,
      "count": 6023,
      "type": "SCALAR"
    },
    {
      "bufferView": 17,
      "componentType": 5126,
      "count": 2162,
      "type": "VEC3"
    },
    {
      "bufferView": 18,
      "componentType": 5126,
      "count": 2162,
      "type": "VEC4"
    },
    {
      "bufferView": 19,
      "componentType": 5126,
      "count": 2162,
      "type": "VEC2"
    },
    {
      "bufferView": 20,
      "componentType": 5126,
      "count": 84,
      "max": [
        0.02858266606926918,
        1.6726888418197632,
        0.11973616480827332
      ],
      "min": [
        -0.028582699596881866,
        1.6357100009918213,
        0.05126969888806343
      ],
      "type": "VEC3"
    },
    {
      "bufferView": 21,
      "componentType": 5125,
      "count": 190,
      "type": "SCALAR"
    },
    {
      "bufferView": 22,
      "componentType": 5126,
      "count": 84,
      "type": "VEC3"
    },
    {
      "bufferView": 23,
      "componentType": 5126,
      "count": 84,
      "type": "VEC4"
    },
    {
      "bufferView": 24,
      "componentType": 5126,
      "count": 84,
      "type": "VEC2"
    },
    {
      "bufferView": 25,
      "componentType": 5126,
      "count": 922,
      "max": [
        0.5314624309539795,
        1.1030890941619873,
        0.1485920399427414
      ],
      "min": [
        -0.5314710140228271,
        0.887802004814148,
        -0.012260599993169308
      ],
      "type": "VEC3"
    },
    {
      "bufferView": 26,
      "componentType": 5125,
      "count": 2310,
      "type": "SCALAR"
    },
    {
      "bufferView": 27,
      "componentType": 5126,
      "count": 922,
      "type": "VEC3"
    },
    {
      "bufferView": 28,
      "componentType": 5126,
      "count": 922,
      "type": "VEC4"
    },
    {
      "bufferView": 29,
      "componentType": 5126,
      "count": 922,
      "type": "VEC2"
    },
    {
      "bufferView": 30,
      "componentType": 5126,
      "count": 2401,
      "max": [
        0.20726676285266876,
        1.0986621379852295,
        0.14437906444072723
      ],
      "min": [
        -0.20726199448108673,
        0.07501450181007385,
        -0.12949800491333008
      ],
      "type": "VEC3"
    },
    {
      "bufferView": 31,
      "componentType": 5125,
      "count": 6184,
      "type": "SCALAR"
    },
    {
      "bufferView": 32,
      "componentType": 5126,
      "count": 2401,
      "type": "VEC3"
    },
    {
      "bufferView": 33,
      "componentType": 5126,
      "count": 2401,
      "type": "VEC4"
    },
    {
      "bufferView": 34,
      "componentType": 5126,
      "count": 2401,
      "type": "VEC2"
    },
    {
      "bufferView": 35,
      "componentType": 5126,
      "count": 1150,
      "max": [
        0.22592149674892426,
        0.14357274770736694,
        0.19338594377040863
      ],
      "min": [
        -0.22592100501060486,
        0.0002632990072015673,
        -0.11213699728250504
      ],
      "type": "VEC3"
    },
    {
      "bufferView": 36,
      "componentType": 5125,
      "count": 2393,
      "type": "SCALAR"
    },
    {
      "bufferView": 37,
      "componentType": 5126,
      "count": 1150,
      "type": "VEC3"
    },
    {
      "bufferView": 38,
      "componentType": 5126,
      "count": 1150,
      "type": "VEC4"
    },
    {
      "bufferView": 39,
      "componentType": 5126,
      "count": 1150,
      "type": "VEC2"
    },
    {
      "bufferView": 40,
      "componentType": 5126,
      "count": 2530,
      "max": [
        0.47128549218177795,
        1.6153850555419922,
        0.14700980484485626
      ],
      "min": [
        -0.4710409939289093,
        1.030150055885315,
        -0.12935100495815277
      ],
      "type": "VEC3"
    },
    {
      "bufferView": 41,
      "componentType": 5125,
      "count": 6740,
      "type": "SCALAR"
    },
    {
      "bufferView": 42,
      "componentType": 5126,
      "count": 2530,
      "type": "VEC3"
    },
    {
      "bufferView": 43,
      "componentType": 5126,
      "count": 2530,
      "type": "VEC4"
    },
    {
      "bufferView": 44,
      "componentType": 5126,
      "count": 2530,
      "type": "VEC2"
    },
    {
      "bufferView": 45,
      "componentType": 5126,
      "count": 1962,
      "max": [
        0.09497559070587158,
        1.8570340871810913,
        0.1488349884748459
      ],
      "min": [
        -0.09929929673671722,
        1.6273800134658813,
        -0.0900489017367363
      ],
      "type": "VEC3"
    },
    {
      "bufferView": 46,
      "componentType": 5125,
      "count": 5403,
      "type": "SCALAR"
    },
    {
      "bufferView": 47,
      "componentType": 5126,
      "count": 1962,
      "type": "VEC3"
    },
    {
      "bufferView": 48,
      "componentType": 5126,
      "count": 1962,
      "type": "VEC4"
    },
    {
      "bufferView": 49,
      "componentType": 5126,
      "count": 1962,
      "type": "VEC2"
    },
    {
      "bufferView": 50,
      "componentType": 5126,
      "count": 606,
      "max": [
        0.081584632396698,
        1.737498164176941,
        0.12615078687667847
      ],
      "min": [
        -0.08158460259437561,
        1.6953599452972412,
        -0.001857129973359406
      ],
      "type": "VEC3"
    },
    {
      "bufferView": 51,
      "componentType": 5125,
      "count": 770,
      "type": "SCALAR"
    },
    {
      "bufferView": 52,
      "componentType": 5126,
      "count": 606,
      "type": "VEC3"
    },
    {
      "bufferView": 53,
      "componentType": 5126,
      "count": 606,
      "type": "VEC4"
    },
    {
      "bufferView": 54,
      "componentType": 5126,
      "count": 606,
      "type": "VEC2"
    }
  ],
  "asset": {
    "version": "2.0"
  },
  "bufferViews": [
    {
      "buffer": 0,
      "byteLength": 48,
      "target": 34962
    },
    {
      "buffer": 1,
      "byteLength": 16,
      "target": 34963
    },
    {
      "buffer": 2,
      "byteLength": 48,
      "target": 34962
    },
    {
      "buffer": 3,
      "byteLength": 64,
      "target": 34962
    },
    {
      "buffer": 4,
      "byteLength": 32,
      "target": 34962
    },
    {
      "buffer": 5,
      "byteLength": 1440,
      "target": 34962
    },
    {
      "buffer": 6,
      "byteLength": 1544,
      "target": 34963
    },
    {
      "buffer": 7,
      "byteLength": 1440,
      "target": 34962
    },
    {
      "buffer": 8,
      "byteLength": 1920,
      "target": 34962
    },
    {
      "buffer": 9,
      "byteLength": 960,
      "target": 34962
    },
    {
      "buffer": 10,
      "byteLength": 1440,
      "target": 34962
    },
    {
      "buffer": 11,
      "byteLength": 1484,
      "target": 34963
    },
    {
      "buffer": 12,
      "byteLength": 1440,
      "target": 34962
    },
    {
      "buffer": 13,
      "byteLength": 1920,
      "target": 34962
    },
    {
      "buffer": 14,
      "byteLength": 960,
      "target": 34962
    },
    {
      "buffer": 15,
      "byteLength": 25944,
      "target": 34962
    },
    {
      "buffer": 16,
      "byteLength": 24092,
      "target": 34963
    },
    {
      "buffer": 17,
      "byteLength": 25944,
      "target": 34962
    },
    {
      "buffer": 18,
      "byteLength": 34592,
      "target": 34962
    },
    {
      "buffer": 19,
      "byteLength": 17296,
      "target": 34962
    },
    {
      "buffer": 20,
      "byteLength": 1008,
      "target": 34962
    },
    {
      "buffer": 21,
      "byteLength": 760,
      "target": 34963
    },
    {
      "buffer": 22,
      "byteLength": 1008,
      "target": 34962
    },
    {
      "buffer": 23,
      "byteLength": 1344,
      "target": 34962
    },
    {
      "buffer": 24,
      "byteLength": 672,
      "target": 34962
    },
    {
      "buffer": 25,
      "byteLength": 11064,
      "target": 34962
    },
    {
      "buffer": 26,
      "byteLength": 9240,
      "target": 34963
    },
    {
      "buffer": 27,
      "byteLength": 11064,
      "target": 34962
    },
    {
      "buffer": 28,
      "byteLength": 14752,
      "target": 34962
    },
    {
      "buffer": 29,
      "byteLength": 7376,
      "target": 34962
    },
    {
      "buffer": 30,
      "byteLength": 28812,
      "target": 34962
    },
    {
      "buffer": 31,
      "byteLength": 24736,
      "target": 34963
    },
    {
      "buffer": 32,
      "byteLength": 28812,
      "target": 34962
    },
    {
      "buffer": 33,
      "byteLength": 38416,
      "target": 34962
    },
    {
      "buffer": 34,
      "byteLength": 19208,
      "target": 34962
    },
    {
      "buffer": 35,
      "byteLength": 13800,
      "target": 34962
    },
    {
      "buffer": 36,
      "byteLength": 9572,
      "target": 34963
    },
    {
      "buffer": 37,
      "byteLength": 13800,
      "target": 34962
    },
    {
      "buffer": 38,
      "byteLength": 18400,
      "target": 34962
    },
    {
      "buffer": 39,
      "byteLength": 9200,
      "target": 34962
    },
    {
      "buffer": 40,
      "byteLength": 30360,
      "target": 34962
    },
    {
      "buffer": 41,
      "byteLength": 26960,
      "target": 34963
    },
    {
      "buffer": 42,
      "byteLength": 30360,
      "target": 34962
    },
    {
      "buffer": 43,
      "byteLength": 40480,
      "target": 34962
    },
    {
      "buffer": 44,
      "byteLength": 20240,
      "target": 34962
    },
    {
      "buffer": 45,
      "byteLength": 23544,
      "target": 34962
    },
    {
      "buffer": 46,
      "byteLength": 21612,
      "target": 34963
    },
    {
      "buffer": 47,
      "byteLength": 23544,
      "target": 34962
    },
    {
      "buffer": 48,
      "byteLength": 31392,
      "target": 34962
    },
    {
      "buffer": 49,
      "byteLength": 15696,
      "target": 34962
    },
    {
      "buffer": 50,
      "byteLength": 7272,
      "target": 34962
    },
    {
      "buffer": 51,
      "byteLength": 3080,
      "target": 34963
    },
    {
      "buffer": 52,
      "byteLength": 7272,
      "target": 34962
    },
    {
      "buffer": 53,
      "byteLength": 9696,
      "target": 34962
    },
    {
      "buffer": 54,
      "byteLength": 4848,
      "target": 34962
    }
  ],
  "buffers": [
    {
      "byteLength": 48,
      "uri": "data:application/octet-stream;base64,"
    },
    {
      "byteLength": 16,
      "uri": "data:application/octet-stream;base64,"
    },
    {
      "byteLength": 48,
      "uri": "data:application/octet-stream;base64,"
    },
    {
      "byteLength": 64,
      "uri": "data:application/octet-stream;base64,"
    },
    {
      "byteLength": 32,
      "uri": "data:application/octet-stream;base64,"
    },
    {
      "byteLength": 1440,
      "uri": "data:application/octet-stream;base64,"
    },
    {
      "byteLength": 1544,
      "uri": "data:application/octet-stream;base64,"
    },
    {
      "byteLength": 1440,
      "uri": "data:application/octet-stream;base64,"
    },
    {
      "byteLength": 1920,
      "uri": "data:application/octet-stream;base64,"
    },
    {
      "byteLength": 960,
      "uri": "data:application/octet-stream;base64,"
    },
    {
      "byteLength": 1440,
      "uri": "data:application/octet-stream;base64,"
    },
    {
      "byteLength": 1484,
      "uri": "data:application/octet-stream;base64,"
    },
    {
      "byteLength": 1440,
      "uri": "data:application/octet-stream;base64,"
    },
    {
      "byteLength": 1920,
      "uri": "data:application/octet-stream;base64,"
    },
    {
      "byteLength": 960,
      "uri": "data:application/octet-stream;base64,"
    },
    {
      "byteLength": 25944,
      "uri": "data:application/octet-stream;base64,"
    },
    {
      "byteLength": 24092,
      "uri": "data:application/octet-stream;base64,"
    },
    {
      "byteLength": 25944,
      "uri": "data:application/octet-stream;base64,"
    },
    {
      "byteLength": 34592,
      "uri": "data:application/octet-stream;base64,"
    },
    {
      "byteLength": 17296,
      "uri": "data:application/octet-stream;base64,"
    },
    {
      "byteLength": 1008,
      "uri": "data:application/octet-stream;base64,"
    },
    {
      "byteLength": 760,
      "uri": "data:application/octet-stream;base64,"
    },
    {
      "byteLength": 1008,
      "uri": "data:application/octet-stream;base64,"
    },
    {
      "byteLength": 1344,
      "uri": "data:application/octet-stream;base64,"
    },
    {
      "byteLength": 672,
      "uri": "data:application/octet-stream;base64,"
    },
    {
      "byteLength": 11064,
      "uri": "data:application/octet-stream;base64,"
    },
    {
      "byteLength": 9240,
      "uri": "data:application/octet-stream;base64,"
    },
    {
      "byteLength": 11064,
      "uri": "data:application/octet-stream;base64,"
    },
    {
      "byteLength": 14752,
      "uri": "data:application/octet-stream;base64,"
    },
    {
      "byteLength": 7376,
      "uri": "data:application/octet-stream;base64,"
    },
    {
      "byteLength": 28812,
      "uri": "data:application/octet-stream;base64,"
    },
    {
      "byteLength": 24736,
      "uri": "data:application/octet-stream;base64,"
    },
    {
      "byteLength": 28812,
      "uri": "data:application/octet-stream;base64,"
    },
    {
      "byteLength": 38416,
      "uri": "data:application/octet-stream;base64,"
    },
    {
      "byteLength": 19208,
      "uri": "data:application/octet-stream;base64,"
    },
    {
      "byteLength": 13800,
      "uri": "data:application/octet-stream;base64,"
    },
    {
      "byteLength": 9572,
      "uri": "data:application/octet-stream;base64,"
    },
    {
      "byteLength": 13800,
      "uri": "data:application/octet-stream;base64,"
    },
    {
      "byteLength": 18400,
      "uri": "data:application/octet-stream;base64,"
    },
    {
      "byteLength": 9200,
      "uri": "data:application/octet-stream;base64,"
    },
    {
      "byteLength": 30360,
      "uri": "data:application/octet-stream;base64,"
    },
    {
      "byteLength": 26960,
      "uri": "data:application/octet-stream;base64,"
    },
    {
      "byteLength": 30360,
      "uri": "data:application/octet-stream;base64,"
    },
    {
      "byteLength": 40480,
      "uri": "data:application/octet-stream;base64,"
    },
    {
      "byteLength": 20240,
      "uri": "data:application/octet-stream;base64,"
    },
    {
      "byteLength": 23544,
      "uri": "data:application/octet-stream;base64,"
    },
    {
      "byteLength": 21612,
      "uri": "data:application/octet-stream;base64,"
    },
    {
      "byteLength": 23544,
      "uri": "data:application/octet-stream;base64,"
    },
    {
      "byteLength": 31392,
      "uri": "data:application/octet-stream;base64,"
    },
    {
      "byteLength": 15696,
      "uri": "data:application/octet-stream;base64,"
    },
    {
      "byteLength": 7272,
      "uri": "data:application/octet-stream;base64,"
    },
    {
      "byteLength": 3080,
      "uri": "data:application/octet-stream;base64,"
    },
    {
      "byteLength": 7272,
      "uri": "data:application/octet-stream;base64,"
    },
    {
      "byteLength": 9696,
      "uri": "data:application/octet-stream;base64,"
    },
    {
      "byteLength": 4848,
      "uri": "data:application/octet-stream;base64,"
    }
  ],
  "extensionsUsed": [
    "KHR_materials_ior",
    "KHR_materials_emissive_strength"
  ],
  "images": [
    {
      "uri": "textures/gltf_embedded_4.png"
    },
    {
      "uri": "textures/gltf_embedded_8@channels=A.combined.png"
    },
    {
      "uri": "textures/gltf_embedded_7.png"
    },
    {
      "uri": "textures/gltf_embedded_12@channels=A.combined.png"
    },
    {
      "uri": "textures/gltf_embedded_11.png"
    },
    {
      "uri": "textures/gltf_embedded_15.png"
    },
    {
      "uri": "textures/gltf_embedded_19@channels=A.combined.png"
    },
    {
      "uri": "textures/gltf_embedded_18.png"
    },
    {
      "uri": "textures/gltf_embedded_23@channels=A.combined.png"
    },
    {
      "uri": "textures/gltf_embedded_22.png"
    },
    {
      "uri": "textures/gltf_embedded_27@channels=A.combined.png"
    },
    {
      "uri": "textures/gltf_embedded_26.png"
    },
    {
      "uri": "textures/gltf_embedded_1@channels=A.combined.png"
    },
    {
      "uri": "textures/gltf_embedded_0.png"
    },
    {
      "uri": "textures/gltf_embedded_31@channels=A.combined.png"
    },
    {
      "uri": "textures/gltf_embedded_30.png"
    },
    {
      "uri": "textures/gltf_embedded_35@channels=A.combined.png"
    },
    {
      "uri": "textures/gltf_embedded_34.png"
    }
  ],
  "materials": [
    {
      "alphaMode": "MASK",
      "doubleSided": true,
      "extensions": {
        "KHR_materials_emissive_strength": {
          "emissiveStrength": 1.0
        },
        "KHR_materials_ior": {
          "ior": 1.0499999523162842
        }
      },
      "name": "347",
      "pbrMetallicRoughness": {
        "baseColorTexture": {
          "index": 0
        },
        "metallicFactor": 0.0,
        "roughnessFactor": 0.6
      }
    },
    {
      "alphaMode": "MASK",
      "doubleSided": true,
      "extensions": {
        "KHR_materials_emissive_strength": {
          "emissiveStrength": 1.0
        },
        "KHR_materials_ior": {
          "ior": 1.0499999523162842
        }
      },
      "name": "500",
      "pbrMetallicRoughness": {
        "baseColorTexture": {
          "index": 2
        },
        "metallicFactor": 0.0,
        "metallicRoughnessTexture": {
          "index": 1
        },
        "roughnessFactor": 0.6
      }
    },
    {
      "alphaMode": "MASK",
      "doubleSided": true,
      "extensions": {
        "KHR_materials_emissive_strength": {
          "emissiveStrength": 1.0
        },
        "KHR_materials_ior": {
          "ior": 1.0499999523162842
        }
      },
      "name": "501",
      "pbrMetallicRoughness": {
        "baseColorTexture": {
          "index": 2
        },
        "metallicFactor": 0.0,
        "metallicRoughnessTexture": {
          "index": 1
        },
        "roughnessFactor": 0.6
      }
    },
    {
      "alphaMode": "MASK",
      "doubleSided": true,
      "extensions": {
        "KHR_materials_emissive_strength": {
          "emissiveStrength": 1.0
        },
        "KHR_materials_ior": {
          "ior": 1.0499999523162842
        }
      },
      "name": "502",
      "pbrMetallicRoughness": {
        "baseColorTexture": {
          "index": 4
        },
        "metallicFactor": 0.0,
        "metallicRoughnessTexture": {
          "index": 3
        },
        "roughnessFactor": 0.6
      }
    },
    {
      "alphaMode": "MASK",
      "doubleSided": true,
      "extensions": {
        "KHR_materials_emissive_strength": {
          "emissiveStrength": 1.0
        },
        "KHR_materials_ior": {
          "ior": 1.0499999523162842
        }
      },
      "name": "503",
      "pbrMetallicRoughness": {
        "baseColorTexture": {
          "index": 5
        },
        "metallicFactor": 0.0,
        "metallicRoughnessTexture": {
          "index": 1
        },
        "roughnessFactor": 0.6
      }
    },
    {
      "alphaMode": "MASK",
      "doubleSided": true,
      "extensions": {
        "KHR_materials_emissive_strength": {
          "emissiveStrength": 1.0
        },
        "KHR_materials_ior": {
          "ior": 1.0499999523162842
        }
      },
      "name": "504",
      "pbrMetallicRoughness": {
        "baseColorTexture": {
          "index": 7
        },
        "metallicFactor": 0.0,
        "metallicRoughnessTexture": {
          "index": 6
        },
        "roughnessFactor": 0.6
      }
    },
    {
      "alphaMode": "MASK",
      "doubleSided": true,
      "extensions": {
        "KHR_materials_emissive_strength": {
          "emissiveStrength": 1.0
        },
        "KHR_materials_ior": {
          "ior": 1.0499999523162842
        }
      },
      "name": "505",
      "pbrMetallicRoughness": {
        "baseColorTexture": {
          "index": 9
        },
        "metallicFactor": 0.0,
        "metallicRoughnessTexture": {
          "index": 8
        },
        "roughnessFactor": 0.6
      }
    },
    {
      "alphaMode": "MASK",
      "doubleSided": true,
      "extensions": {
        "KHR_materials_emissive_strength": {
          "emissiveStrength": 1.0
        },
        "KHR_materials_ior": {
          "ior": 1.0499999523162842
        }
      },
      "name": "506",
      "pbrMetallicRoughness": {
        "baseColorTexture": {
          "index": 11
        },
        "metallicFactor": 0.0,
        "metallicRoughnessTexture": {
          "index": 10
        },
        "roughnessFactor": 0.6
      }
    },
    {
      "alphaMode": "MASK",
      "doubleSided": true,
      "extensions": {
        "KHR_materials_emissive_strength": {
          "emissiveStrength": 1.0
        },
        "KHR_materials_ior": {
          "ior": 1.0499999523162842
        }
      },
      "name": "507",
      "pbrMetallicRoughness": {
        "baseColorTexture": {
          "index": 13
        },
        "metallicFactor": 0.0,
        "metallicRoughnessTexture": {
          "index": 12
        },
        "roughnessFactor": 0.6
      }
    },
    {
      "alphaMode": "MASK",
      "doubleSided": true,
      "extensions": {
        "KHR_materials_emissive_strength": {
          "emissiveStrength": 1.0
        },
        "KHR_materials_ior": {
          "ior": 1.0499999523162842
        }
      },
      "name": "508",
      "pbrMetallicRoughness": {
        "baseColorTexture": {
          "index": 15
        },
        "metallicFactor": 0.0,
        "metallicRoughnessTexture": {
          "index": 14
        },
        "roughnessFactor": 0.6
      }
    },
    {
      "alphaMode": "MASK",
      "doubleSided": true,
      "extensions": {
        "KHR_materials_emissive_strength": {
          "emissiveStrength": 1.0
        },
        "KHR_materials_ior": {
          "ior": 1.0499999523162842
        }
      },
      "name": "509",
      "pbrMetallicRoughness": {
        "baseColorTexture": {
          "index": 17
        },
        "metallicFactor": 0.0,
        "metallicRoughnessTexture": {
          "index": 16
        },
        "roughnessFactor": 0.6
      }
    }
  ],
  "meshes": [
    {
      "primitives": [
        {
          "attributes": {
            "NORMAL": 2,
            "POSITION": 0,
            "TANGENT": 3,
            "TEXCOORD_0": 4
          },
          "indices": 1,
          "material": 0,
          "mode": 5
        }
      ]
    },
    {
      "primitives": [
        {
          "attributes": {
            "NORMAL": 7,
            "POSITION": 5,
            "TANGENT": 8,
            "TEXCOORD_0": 9
          },
          "indices": 6,
          "material": 1,
          "mode": 5
        }
      ]
    },
    {
      "primitives": [
        {
          "attributes": {
            "NORMAL": 12,
            "POSITION": 10,
            "TANGENT": 13,
            "TEXCOORD_0": 14
          },
          "indices": 11,
          "material": 2,
          "mode": 5
        }
      ]
    },
    {
      "primitives": [
        {
          "attributes": {
            "NORMAL": 17,
            "POSITION": 15,
            "TANGENT": 18,
            "TEXCOORD_0": 19
          },
          "indices": 16,
          "material": 3,
          "mode": 5
        }
      ]
    },
    {
      "primitives": [
        {
          "attributes": {
            "NORMAL": 22,
            "POSITION": 20,
            "TANGENT": 23,
            "TEXCOORD_0": 24
          },
          "indices": 21,
          "material": 4,
          "mode": 5
        }
      ]
    },
    {
      "primitives": [
        {
          "attributes": {
            "NORMAL": 27,
            "POSITION": 25,
            "TANGENT": 28,
            "TEXCOORD_0": 29
          },
          "indices": 26,
          "material": 5,
          "mode": 5
        }
      ]
    },
    {
      "primitives": [
        {
          "attributes": {
            "NORMAL": 32,
            "POSITION": 30,
            "TANGENT": 33,
            "TEXCOORD_0": 34
          },
          "indices": 31,
          "material": 6,
          "mode": 5
        }
      ]
    },
    {
      "primitives": [
        {
          "attributes": {
            "NORMAL": 37,
            "POSITION": 35,
            "TANGENT": 38,
            "TEXCOORD_0": 39
          },
          "indices": 36,
          "material": 7,
          "mode": 5
        }
      ]
    },
    {
      "primitives": [
        {
          "attributes": {
            "NORMAL": 42,
            "POSITION": 40,
            "TANGENT": 43,
            "TEXCOORD_0": 44
          },
          "indices": 41,
          "material": 8,
          "mode": 5
        }
      ]
    },
    {
      "primitives": [
        {
          "attributes": {
            "NORMAL": 47,
            "POSITION": 45,
            "TANGENT": 48,
            "TEXCOORD_0": 49
          },
          "indices": 46,
          "material": 9,
          "mode": 5
        }
      ]
    },
    {
      "primitives": [
        {
          "attributes": {
            "NORMAL": 52,
            "POSITION": 50,
            "TANGENT": 53,
            "TEXCOORD_0": 54
          },
          "indices": 51,
          "material": 10,
          "mode": 5
        }
      ]
    }
  ],
  "nodes": [
    {
      "mesh": 0,
      "name": "_gltfNode_0"
    },
    {
      "children": [
        0
      ],
      "name": "_0",
      "rotation": [
        0.0,
        0.05958986296916305,
        0.0,
        0.9982229451536948
      ],
      "scale": [
        6.402137279510498,
        6.611959934234619,
        0.9999999403953552
      ],
      "translation": [
        0.0,
        0.0,
        0.0
      ]
    },
    {
      "children": [
        1
      ],
      "name": "node_id813_6",
      "rotation": [
        0.0,
        0.0,
        0.0,
        1.0
      ],
      "scale": [
        0.0010000000474974513,
        0.0010162499966099858,
        0.0010000000474974513
      ],
      "translation": [
        -0.00020931499602738768,
        0.09139599651098251,
        0.2804490029811859
      ]
    },
    {
      "mesh": 1,
      "name": "_gltfNode_3"
    },
    {
      "children": [
        3
      ],
      "name": "node_id782_72"
    },
    {
      "children": [
        4
      ],
      "name": "node_id781_71",
      "rotation": [
        0.0,
        0.0,
        0.0,
        1.0
      ],
      "scale": [
        274.6400146484375,
        274.6400146484375,
        274.6400146484375
      ],
      "translation": [
        0.001688909949734807,
        -264.00201416015625,
        240.64999389648438
      ]
    },
    {
      "mesh": 2,
      "name": "_gltfNode_6"
    },
    {
      "children": [
        6
      ],
      "name": "node_id785_74"
    },
    {
      "children": [
        7
      ],
      "name": "node_id784_73",
      "rotation": [
        0.0,
        0.0,
        0.0,
        1.0
      ],
      "scale": [
        274.6400146484375,
        274.6400146484375,
        274.6400146484375
      ],
      "translation": [
        0.001688909949734807,
        -264.00201416015625,
        240.64999389648438
      ]
    },
    {
      "mesh": 3,
      "name": "_gltfNode_9"
    },
    {
      "children": [
        9
      ],
      "name": "node_id788_76"
    },
    {
      "children": [
        10
      ],
      "name": "node_id787_75",
      "rotation": [
        0.0,
        0.0,
        0.0,
        1.0
      ],
      "scale": [
        274.6400146484375,
        274.6400146484375,
        274.6400146484375
      ],
      "translation": [
        0.001688909949734807,
        -264.00201416015625,
        240.64999389648438
      ]
    },
    {
      "mesh": 4,
      "name": "_gltfNode_12"
    },
    {
      "children": [
        12
      ],
      "name": "node_id791_78"
    },
    {
      "children": [
        13
      ],
      "name": "node_id790_77",
      "rotation": [
        0.0,
        0.0,
        0.0,
        1.0
      ],
      "scale": [
        274.6400146484375,
        274.6400146484375,
        274.6400146484375
      ],
      "translation": [
        0.001688909949734807,
        -264.00201416015625,
        240.64999389648438
      ]
    },
    {
      "mesh": 5,
      "name": "_gltfNode_15"
    },
    {
      "children": [
        15
      ],
      "name": "node_id794_80"
    },
    {
      "children": [
        16
      ],
      "name": "node_id793_79",
      "rotation": [
        0.0,
        0.0,
        0.0,
        1.0
      ],
      "scale": [
        274.6400146484375,
        274.6400146484375,
        274.6400146484375
      ],
      "translation": [
        0.001688909949734807,
        -264.00201416015625,
        240.64999389648438
      ]
    },
    {
      "mesh": 6,
      "name": "_gltfNode_18"
    },
    {
      "children": [
        18
      ],
      "name": "node_id797_82"
    },
    {
      "children": [
        19
      ],
      "name": "node_id796_81",
      "rotation": [
        0.0,
        0.0,
        0.0,
        1.0
      ],
      "scale": [
        274.6400146484375,
        274.6400146484375,
        274.6400146484375
      ],
      "translation": [
        0.001688909949734807,
        -264.00201416015625,
        240.64999389648438
      ]
    },
    {
      "mesh": 7,
      "name": "_gltfNode_21"
    },
    {
      "children": [
        21
      ],
      "name": "node_id800_84"
    },
    {
      "children": [
        22
      ],
      "name": "node_id799_83",
      "rotation": [
        0.0,
        0.0,
        0.0,
        1.0
      ],
      "scale": [
        274.6400146484375,
        274.6400146484375,
        274.6400146484375
      ],
      "translation": [
        0.001688909949734807,
        -264.00201416015625,
        240.64999389648438
      ]
    },
    {
      "mesh": 8,
      "name": "_gltfNode_24"
    },
    {
      "children": [
        24
      ],
      "name": "node_id803_86"
    },
    {
      "children": [
        25
      ],
      "name": "node_id802_85",
      "rotation": [
        0.0,
        0.0,
        0.0,
        1.0
      ],
      "scale": [
        274.6400146484375,
        274.6400146484375,
        274.6400146484375
      ],
      "translation": [
        0.001688909949734807,
        -264.00201416015625,
        240.64999389648438
      ]
    },
    {
      "mesh": 9,
      "name": "_gltfNode_27"
    },
    {
      "children": [
        27
      ],
      "name": "node_id806_88"
    },
    {
      "children": [
        28
      ],
      "name": "node_id805_87",
      "rotation": [
        0.0,
        0.0,
        0.0,
        1.0
      ],
      "scale": [
        274.6400146484375,
        274.6400146484375,
        274.6400146484375
      ],
      "translation": [
        0.001688909949734807,
        -264.00201416015625,
        240.64999389648438
      ]
    },
    {
      "mesh": 10,
      "name": "_gltfNode_30"
    },
    {
      "children": [
        30
      ],
      "name": "node_id809_90"
    },
    {
      "children": [
        31
      ],
      "name": "node_id808_89",
      "rotation": [
        0.0,
        0.0,
        0.0,
        1.0
      ],
      "scale": [
        274.6400146484375,
        274.6400146484375,
        274.6400146484375
      ],
      "translation": [
        0.001688909949734807,
        -264.00201416015625,
        240.64999389648438
      ]
    },
    {
      "children": [
        5,
        8,
        11,
        14,
        17,
        20,
        23,
        26,
        29,
        32
      ],
      "name": "node_id811_2",
      "rotation": [
        0.0,
        0.0,
        0.0,
        1.0
      ],
      "scale": [
        0.0010000000474974513,
        0.0010162499966099858,
        0.0010000000474974513
      ],
      "translation": [
        0.0,
        -0.004030770156532526,
        0.0
      ]
    },
    {
      "children": [
        2,
        33
      ],
      "name": "root_4"
    },
    {
      "children": [
        34
      ],
      "name": "Teacher_Joe",
      "rotation": [
        -1.9753748434203095e-22,
        0.0,
        0.0,
        1.0
      ],
      "scale": [
        1.0,
        1.0,
        1.0
      ],
      "translation": [
        0.0,
        0.0,
        0.0
      ]
    }
  ],
  "samplers": [
    {
      "magFilter": 9729,
      "minFilter": 9987,
      "wrapS": 10497,
      "wrapT": 10497
    },
    {
      "magFilter": 9729,
      "minFilter": 9729,
      "wrapS": 10497,
      "wrapT": 10497
    },
    {
      "magFilter": 9729,
      "minFilter": 9729,
      "wrapS": 10497,
      "wrapT": 10497
    },
    {
      "magFilter": 9729,
      "minFilter": 9729,
      "wrapS": 10497,
      "wrapT": 10497
    },
    {
      "magFilter": 9729,
      "minFilter": 9729,
      "wrapS": 10497,
      "wrapT": 10497
    },
    {
      "magFilter": 9729,
      "minFilter": 9987,
      "wrapS": 10497,
      "wrapT": 10497
    },
    {
      "magFilter": 9729,
      "minFilter": 9729,
      "wrapS": 10497,
      "wrapT": 10497
    },
    {
      "magFilter": 9729,
      "minFilter": 9729,
      "wrapS": 10497,
      "wrapT": 10497
    },
    {
      "magFilter": 9729,
      "minFilter": 9987,
      "wrapS": 10497,
      "wrapT": 10497
    },
    {
      "magFilter": 9729,
      "minFilter": 9987,
      "wrapS": 10497,
      "wrapT": 10497
    },
    {
      "magFilter": 9729,
      "minFilter": 9987,
      "wrapS": 10497,
      "wrapT": 10497
    },
    {
      "magFilter": 9729,
      "minFilter": 9987,
      "wrapS": 10497,
      "wrapT": 10497
    },
    {
      "magFilter": 9729,
      "minFilter": 9987,
      "wrapS": 10497,
      "wrapT": 10497
    },
    {
      "magFilter": 9729,
      "minFilter": 9987,
      "wrapS": 10497,
      "wrapT": 10497
    },
    {
      "magFilter": 9729,
      "minFilter": 9729,
      "wrapS": 10497,
      "wrapT": 10497
    },
    {
      "magFilter": 9729,
      "minFilter": 9729,
      "wrapS": 10497,
      "wrapT": 10497
    },
    {
      "magFilter": 9729,
      "minFilter": 9987,
      "wrapS": 10497,
      "wrapT": 10497
    },
    {
      "magFilter": 9729,
      "minFilter": 9987,
      "wrapS": 10497,
      "wrapT": 10497
    }
  ],
  "scene": 0,
  "scenes": [
    {
      "nodes": [
        35
      ]
    }
  ],
  "textures": [
    {
      "sampler": 0,
      "source": 0
    },
    {
      "sampler": 1,
      "source": 1
    },
    {
      "sampler": 2,
      "source": 2
    },
    {
      "sampler": 3,
      "source": 3
    },
    {
      "sampler": 4,
      "source": 4
    },
    {
      "sampler": 5,
      "source": 5
    },
    {
      "sampler": 6,
      "source": 6
    },
    {
      "sampler": 7,
      "source": 7
    },
    {
      "sampler": 8,
      "source": 8
    },
    {
      "sampler": 9,
      "source": 9
    },
    {
      "sampler": 10,
      "source": 10
    },
    {
      "sampler": 11,
      "source": 11
    },
    {
      "sampler": 12,
      "source": 12
    },
    {
      "sampler": 13,
      "source": 13
    },
    {
      "sampler": 14,
      "source": 14
    },
    {
      "sampler": 15,
      "source": 15
    },
    {
      "sampler": 16,
      "source": 16
    },
    {
      "sampler": 17,
      "source": 17
    }
  ]
}
