{
  "accessors": [
    {
      "bufferView": 0,
      "componentType": 5126,
      "count": 128,
      "max": [
        0.9501863718032837,
        0.9501863718032837,
        0.0877109169960022
      ],
      "min": [
        -0.9501870274543762,
        -0.9501870274543762,
        0.006223740056157112
      ],
      "type": "VEC3"
    },
    {
      "bufferView": 1,
      "componentType": 5125,
      "count": 242,
      "type": "SCALAR"
    },
    {
      "bufferView": 2,
      "componentType": 5126,
      "count": 128,
      "type": "VEC3"
    },
    {
      "bufferView": 3,
      "componentType": 5126,
      "count": 128,
      "type": "VEC4"
    },
    {
      "bufferView": 4,
      "componentType": 5126,
      "count": 128,
      "type": "VEC2"
    }
  ],
  "asset": {
    "version": "2.0"
  },
  "bufferViews": [
    {
      "buffer": 0,
      "byteLength": 1536,
      "target": 34962
    },
    {
      "buffer": 1,
      "byteLength": 968,
      "target": 34963
    },
    {
      "buffer": 2,
      "byteLength": 1536,
      "target": 34962
    },
    {
      "buffer": 3,
      "byteLength": 2048,
      "target": 34962
    },
    {
      "buffer": 4,
      "byteLength": 1024,
      "target": 34962
    }
  ],
  "buffers": [
    {
      "byteLength": 1536,
      "uri": "data:application/octet-stream;base64,"
    },
    {
      "byteLength": 968,
      "uri": "data:application/octet-stream;base64,"
    },
    {
      "byteLength": 1536,
      "uri": "data:application/octet-stream;base64,"
    },
    {
      "byteLength": 2048,
      "uri": "data:application/octet-stream;base64,"
    },
    {
      "byteLength": 1024,
      "uri": "data:application/octet-stream;base64,"
    }
  ],
  "extensionsUsed": [
    "KHR_materials_specular"
  ],
  "images": [
    {
      "uri": "textures/M_Carpet_Roughness.comb.png"
    },
    {
      "uri": "textures/M_Carpet_BaseColor.png"
    },
    {
      "uri": "textures/M_Carpet_Normal.png"
    }
  ],
  "materials": [
    {
      "doubleSided": true,
      "extensions": {
        "KHR_materials_specular": {
          "specularFactor": 0.11568454653024673
        }
      },
      "name": "M_Carpet",
      "normalTexture": {
        "index": 2
      },
      "pbrMetallicRoughness": {
        "baseColorTexture": {
          "index": 1
        },
        "metallicRoughnessTexture": {
          "index": 0
        }
      }
    }
  ],
  "meshes": [
    {
      "name": "SM_Carpet_Pentagram_M_Carpet_0",
      "primitives": [
        {
          "attributes": {
            "NORMAL": 2,
            "POSITION": 0,
            "TANGENT": 3,
            "TEXCOORD_0": 4
          },
          "indices": 1,
          "material": 0,
          "mode": 5
        }
      ]
    }
  ],
  "nodes": [
    {
      "mesh": 0,
      "name": "SM_Carpet_Pentagram_M_Carpet_0"
    },
    {
      "children": [
        0
      ],
      "name": "SM_Carpet_Pentagram",
      "rotation": [
        -0.5437343131317766,
        -0.452054152929887,
        -0.4520541176106489,
        0.543734415218694
      ],
      "scale": [
        60.000030517578125,
        60.000030517578125,
        60.0
      ],
      "translation": [
        0.0,
        0.0,
        0.0
      ]
    },
    {
      "children": [
        1
      ],
      "name": "RootNode"
    },
    {
      "children": [
        2
      ],
      "name": "Carpet with Pentagram",
      "rotation": [
        1.1102230246251565e-16,
        0.0,
        0.0,
        1.0
      ],
      "scale": [
        0.009999999776482582,
        0.009999999776482582,
        0.009999999776482582
      ],
      "translation": [
        0.0,
        0.0,
        0.0
      ]
    }
  ],
  "samplers": [
    {
      "magFilter": 9729,
      "minFilter": 9987,
      "wrapS": 10497,
      "wrapT": 10497
    },
    {
      "magFilter": 9729,
      "minFilter": 9987,
      "wrapS": 10497,
      "wrapT": 10497
    },
    {
      "magFilter": 9729,
      "minFilter": 9987,
      "wrapS": 10497,
      "wrapT": 10497
    }
  ],
  "scene": 0,
  "scenes": [
    {
      "nodes": [
        3
      ]
    }
  ],
  "textures": [
    {
      "sampler": 0,
      "source": 0
    },
    {
      "sampler": 1,
      "source": 1
    },
    {
      "sampler": 2,
      "source": 2
    }
  ]
}
