{
  "accessors": [
    {
      "bufferView": 0,
      "componentType": 5126,
      "count": 120,
      "max": [
        0.9999960064888,
        0.9999974966049194,
        6.4545063972473145
      ],
      "min": [
        -1.0,
        -2.1651599407196045,
        -1.0
      ],
      "type": "VEC3"
    },
    {
      "bufferView": 1,
      "componentType": 5125,
      "count": 179,
      "type": "SCALAR"
    },
    {
      "bufferView": 2,
      "componentType": 5126,
      "count": 120,
      "type": "VEC3"
    },
    {
      "bufferView": 3,
      "componentType": 5126,
      "count": 120,
      "type": "VEC4"
    },
    {
      "bufferView": 4,
      "componentType": 5126,
      "count": 120,
      "type": "VEC2"
    },
    {
      "bufferView": 5,
      "componentType": 5126,
      "count": 120,
      "type": "VEC2"
    },
    {
      "bufferView": 6,
      "componentType": 5126,
      "count": 780,
      "max": [
        0.159584641456604,
        4.6891000238247216e-06,
        3.5450661182403564
      ],
      "min": [
        -0.231673002243042,
        -2.8008298873901367,
        -3.5450899600982666
      ],
      "type": "VEC3"
    },
    {
      "bufferView": 7,
      "componentType": 5125,
      "count": 1068,
      "type": "SCALAR"
    },
    {
      "bufferView": 8,
      "componentType": 5126,
      "count": 780,
      "type": "VEC3"
    },
    {
      "bufferView": 9,
      "componentType": 5126,
      "count": 780,
      "type": "VEC4"
    },
    {
      "bufferView": 10,
      "componentType": 5126,
      "count": 780,
      "type": "VEC2"
    },
    {
      "bufferView": 11,
      "componentType": 5126,
      "count": 780,
      "type": "VEC2"
    },
    {
      "bufferView": 12,
      "componentType": 5126,
      "count": 780,
      "type": "VEC2"
    },
    {
      "bufferView": 13,
      "componentType": 5126,
      "count": 4,
      "max": [
        1.625
      ],
      "min": [
        0.0
      ],
      "type": "SCALAR"
    },
    {
      "bufferView": 14,
      "componentType": 5126,
      "count": 4,
      "type": "VEC3"
    },
    {
      "bufferView": 15,
      "componentType": 5126,
      "count": 84,
      "max": [
        1.625
      ],
      "min": [
        0.0
      ],
      "type": "SCALAR"
    },
    {
      "bufferView": 16,
      "componentType": 5126,
      "count": 84,
      "type": "VEC4"
    }
  ],
  "animations": [
    {
      "channels": [
        {
          "sampler": 0,
          "target": {
            "node": 3,
            "path": "scale"
          }
        },
        {
          "sampler": 1,
          "target": {
            "node": 3,
            "path": "rotation"
          }
        }
      ],
      "name": "Cube.001Action",
      "samplers": [
        {
          "input": 13,
          "interpolation": "LINEAR",
          "output": 14
        },
        {
          "input": 15,
          "interpolation": "LINEAR",
          "output": 16
        }
      ]
    }
  ],
  "asset": {
    "version": "2.0"
  },
  "bufferViews": [
    {
      "buffer": 0,
      "byteLength": 1440,
      "target": 34962
    },
    {
      "buffer": 1,
      "byteLength": 716,
      "target": 34963
    },
    {
      "buffer": 2,
      "byteLength": 1440,
      "target": 34962
    },
    {
      "buffer": 3,
      "byteLength": 1920,
      "target": 34962
    },
    {
      "buffer": 4,
      "byteLength": 960,
      "target": 34962
    },
    {
      "buffer": 5,
      "byteLength": 960,
      "target": 34962
    },
    {
      "buffer": 6,
      "byteLength": 9360,
      "target": 34962
    },
    {
      "buffer": 7,
      "byteLength": 4272,
      "target": 34963
    },
    {
      "buffer": 8,
      "byteLength": 9360,
      "target": 34962
    },
    {
      "buffer": 9,
      "byteLength": 12480,
      "target": 34962
    },
    {
      "buffer": 10,
      "byteLength": 6240,
      "target": 34962
    },
    {
      "buffer": 11,
      "byteLength": 6240,
      "target": 34962
    },
    {
      "buffer": 12,
      "byteLength": 6240,
      "target": 34962
    },
    {
      "buffer": 13,
      "byteLength": 16
    },
    {
      "buffer": 14,
      "byteLength": 48
    },
    {
      "buffer": 15,
      "byteLength": 336
    },
    {
      "buffer": 16,
      "byteLength": 1344
    }
  ],
  "buffers": [
    {
      "byteLength": 1440,
      "uri": "data:application/octet-stream;base64,"
    },
    {
      "byteLength": 716,
      "uri": "data:application/octet-stream;base64,"
    },
    {
      "byteLength": 1440,
      "uri": "data:application/octet-stream;base64,"
    },
    {
      "byteLength": 1920,
      "uri": "data:application/octet-stream;base64,"
    },
    {
      "byteLength": 960,
      "uri": "data:application/octet-stream;base64,"
    },
    {
      "byteLength": 960,
      "uri": "data:application/octet-stream;base64,"
    },
    {
      "byteLength": 9360,
      "uri": "data:application/octet-stream;base64,"
    },
    {
      "byteLength": 4272,
      "uri": "data:application/octet-stream;base64,"
    },
    {
      "byteLength": 9360,
      "uri": "data:application/octet-stream;base64,"
    },
    {
      "byteLength": 12480,
      "uri": "data:application/octet-stream;base64,"
    },
    {
      "byteLength": 6240,
      "uri": "data:application/octet-stream;base64,"
    },
    {
      "byteLength": 6240,
      "uri": "data:application/octet-stream;base64,"
    },
    {
      "byteLength": 6240,
      "uri": "data:application/octet-stream;base64,"
    },
    {
      "byteLength": 16,
      "uri": "data:application/octet-stream;base64,"
    },
    {
      "byteLength": 48,
      "uri": "data:application/octet-stream;base64,"
    },
    {
      "byteLength": 336,
      "uri": "data:application/octet-stream;base64,"
    },
    {
      "byteLength": 1344,
      "uri": "data:application/octet-stream;base64,"
    }
  ],
  "extensionsUsed": [
    "KHR_materials_emissive_strength"
  ],
  "images": [
    {
      "uri": "textures/untitled_Material_OcclusionRoughnessMetallic.png"
    },
    {
      "uri": "textures/untitled_Material_BaseColor.png"
    },
    {
      "uri": "textures/untitled_Material_Normal.png"
    }
  ],
  "materials": [
    {
      "doubleSided": true,
      "extensions": {
        "KHR_materials_emissive_strength": {
          "emissiveStrength": 1.0
        }
      },
      "name": "Material",
      "normalTexture": {
        "index": 2
      },
      "occlusionTexture": {
        "index": 0
      },
      "pbrMetallicRoughness": {
        "baseColorTexture": {
          "index": 1
        },
        "metallicRoughnessTexture": {
          "index": 0
        }
      }
    }
  ],
  "meshes": [
    {
      "name": "Cube_Material_0",
      "primitives": [
        {
          "attributes": {
            "NORMAL": 2,
            "POSITION": 0,
            "TANGENT": 3,
            "TEXCOORD_0": 4,
            "TEXCOORD_1": 5
          },
          "indices": 1,
          "material": 0,
          "mode": 5
        }
      ]
    },
    {
      "name": "Cube.001_Material_0",
      "primitives": [
        {
          "attributes": {
            "NORMAL": 8,
            "POSITION": 6,
            "TANGENT": 9,
            "TEXCOORD_0": 10,
            "TEXCOORD_1": 11,
            "TEXCOORD_2": 12
          },
          "indices": 7,
          "material": 0,
          "mode": 5
        }
      ]
    }
  ],
  "nodes": [
    {
      "mesh": 0,
      "name": "Cube_Material_0"
    },
    {
      "children": [
        0
      ],
      "name": "Cube",
      "rotation": [
        -0.7071068387878171,
        0.0,
        0.0,
        0.7071067235852733
      ],
      "scale": [
        100.0,
        100.0,
        100.0
      ],
      "translation": [
        0.0,
        110.0,
        0.0
      ]
    },
    {
      "mesh": 1,
      "name": "Cube.001_Material_0"
    },
    {
      "children": [
        2
      ],
      "name": "Cube.001",
      "rotation": [
        -0.7071037930720814,
        0.0020464786239803405,
        0.002046478641982601,
        0.7071038464564342
      ],
      "scale": [
        99.9999771118164,
        99.9999771118164,
        100.0
      ],
      "translation": [
        102.12899780273438,
        382.7250061035156,
        -81.78350067138672
      ]
    },
    {
      "children": [
        1,
        3
      ],
      "name": "RootNode"
    },
    {
      "children": [
        4
      ],
      "name": "Locker (rough texture)",
      "rotation": [
        1.1102230246251565e-16,
        0.0,
        0.0,
        1.0
      ],
      "scale": [
        0.009999999776482582,
        0.009999999776482582,
        0.009999999776482582
      ],
      "translation": [
        0.0,
        0.0,
        0.0
      ]
    }
  ],
  "samplers": [
    {
      "magFilter": 9729,
      "minFilter": 9987,
      "wrapS": 10497,
      "wrapT": 10497
    },
    {
      "magFilter": 9729,
      "minFilter": 9987,
      "wrapS": 10497,
      "wrapT": 10497
    },
    {
      "magFilter": 9729,
      "minFilter": 9987,
      "wrapS": 10497,
      "wrapT": 10497
    }
  ],
  "scene": 0,
  "scenes": [
    {
      "nodes": [
        5
      ]
    }
  ],
  "textures": [
    {
      "sampler": 0,
      "source": 0
    },
    {
      "sampler": 1,
      "source": 1
    },
    {
      "sampler": 2,
      "source": 2
    }
  ]
}
