{
  "accessors": [
    {
      "bufferView": 0,
      "componentType": 5126,
      "count": 330,
      "max": [
        0.9143989682197571,
        1.0286988019943237,
        0.12991414964199066
      ],
      "min": [
        0.0,
        -1.0286999940872192,
        -0.09352000057697296
      ],
      "type": "VEC3"
    },
    {
      "bufferView": 1,
      "componentType": 5125,
      "count": 590,
      "type": "SCALAR"
    },
    {
      "bufferView": 2,
      "componentType": 5126,
      "count": 330,
      "type": "VEC3"
    },
    {
      "bufferView": 3,
      "componentType": 5126,
      "count": 330,
      "type": "VEC4"
    },
    {
      "bufferView": 4,
      "componentType": 5126,
      "count": 330,
      "type": "VEC2"
    },
    {
      "bufferView": 5,
      "componentType": 5126,
      "count": 2,
      "type": "MAT4"
    },
    {
      "bufferView": 6,
      "componentType": 5123,
      "count": 330,
      "type": "VEC4"
    },
    {
      "bufferView": 7,
      "componentType": 5126,
      "count": 330,
      "type": "VEC4"
    }
  ],
  "asset": {
    "version": "2.0"
  },
  "bufferViews": [
    {
      "buffer": 0,
      "byteLength": 3960,
      "target": 34962
    },
    {
      "buffer": 1,
      "byteLength": 2360,
      "target": 34963
    },
    {
      "buffer": 2,
      "byteLength": 3960,
      "target": 34962
    },
    {
      "buffer": 3,
      "byteLength": 5280,
      "target": 34962
    },
    {
      "buffer": 4,
      "byteLength": 2640,
      "target": 34962
    },
    {
      "buffer": 5,
      "byteLength": 128
    },
    {
      "buffer": 6,
      "byteLength": 2640,
      "target": 34962
    },
    {
      "buffer": 7,
      "byteLength": 5280,
      "target": 34962
    }
  ],
  "buffers": [
    {
      "byteLength": 3960,
      "uri": "data:application/octet-stream;base64,"
    },
    {
      "byteLength": 2360,
      "uri": "data:application/octet-stream;base64,"
    },
    {
      "byteLength": 3960,
      "uri": "data:application/octet-stream;base64,"
    },
    {
      "byteLength": 5280,
      "uri": "data:application/octet-stream;base64,"
    },
    {
      "byteLength": 2640,
      "uri": "data:application/octet-stream;base64,"
    },
    {
      "byteLength": 128,
      "uri": "data:application/octet-stream;base64,"
    },
    {
      "byteLength": 2640,
      "uri": "data:application/octet-stream;base64,"
    },
    {
      "byteLength": 5280,
      "uri": "data:application/octet-stream;base64,"
    }
  ],
  "extensionsUsed": [
    "KHR_materials_emissive_strength",
    "KHR_materials_specular"
  ],
  "images": [
    {
      "uri": "textures/door01a_0.png"
    }
  ],
  "materials": [
    {
      "doubleSided": true,
      "extensions": {
        "KHR_materials_emissive_strength": {
          "emissiveStrength": 1.0
        },
        "KHR_materials_specular": {
          "specularFactor": 1.0,
          "specularTexture": {
            "index": 0,
            "texCoord": 0
          }
        }
      },
      "name": "door01a",
      "pbrMetallicRoughness": {
        "baseColorTexture": {
          "index": 0
        },
        "metallicFactor": 0.0,
        "roughnessFactor": 0.5
      }
    }
  ],
  "meshes": [
    {
      "primitives": [
        {
          "attributes": {
            "JOINTS_0": 6,
            "NORMAL": 2,
            "POSITION": 0,
            "TANGENT": 3,
            "TEXCOORD_0": 4,
            "WEIGHTS_0": 7
          },
          "indices": 1,
          "material": 0,
          "mode": 5
        }
      ]
    }
  ],
  "nodes": [
    {
      "mesh": 0,
      "name": "_gltfNode_0",
      "skin": 0
    },
    {
      "name": "Door01_Dynamic.handle_0",
      "rotation": [
        0.0,
        0.0,
        0.0,
        1.0
      ],
      "scale": [
        1.0,
        1.0,
        1.0
      ],
      "translation": [
        0.8345810174942017,
        -0.19794200360774994,
        0.038052599877119064
      ]
    },
    {
      "children": [
        1
      ],
      "name": "Door01_Dynamic.door_1",
      "rotation": [
        -1.8225799999999094e-07,
        0.0,
        0.0,
        0.9999999999999833
      ],
      "scale": [
        1.0,
        1.0,
        1.0
      ],
      "translation": [
        0.0,
        0.0,
        0.0
      ]
    },
    {
      "children": [
        2
      ],
      "name": "GLTF_created_0"
    },
    {
      "children": [
        3
      ],
      "name": "door01_dynamic_ARM_3"
    },
    {
      "children": [
        4
      ],
      "name": "Door",
      "rotation": [
        -1.9753748434203095e-22,
        0.0,
        0.0,
        1.0
      ],
      "scale": [
        1.0,
        1.0,
        1.0
      ],
      "translation": [
        0.0,
        0.0,
        0.0
      ]
    }
  ],
  "samplers": [
    {
      "magFilter": 9729,
      "minFilter": 9987,
      "wrapS": 10497,
      "wrapT": 10497
    }
  ],
  "scene": 0,
  "scenes": [
    {
      "nodes": [
        5,
        0
      ]
    }
  ],
  "skins": [
    {
      "inverseBindMatrices": 5,
      "joints": [
        1,
        2
      ]
    }
  ],
  "textures": [
    {
      "sampler": 0,
      "source": 0
    }
  ]
}
